<?xml version="1.0" standalone="no"?>
<!DOCTYPE svg PUBLIC "-//W3C//DTD SVG 20010904//EN"
 "http://www.w3.org/TR/2001/REC-SVG-20010904/DTD/svg10.dtd">
<svg version="1.0" xmlns="http://www.w3.org/2000/svg"
 width="16.000000pt" height="16.000000pt" viewBox="0 0 16.000000 16.000000"
 preserveAspectRatio="xMidYMid meet">
<metadata>
Created by potrace 1.11, written by Peter Selinger 2001-2013
</metadata>
<g transform="translate(0.000000,16.000000) scale(0.006226,-0.006226)"
fill="#000000" stroke="none">
<path d="M950 2559 c-221 -19 -458 -60 -635 -111 l-80 -23 -3 -375 c-3 -425 5
-521 63 -745 73 -285 204 -555 384 -790 64 -85 233 -256 320 -327 120 -96 259
-188 286 -188 7 0 66 36 131 79 453 301 778 801 884 1361 31 164 40 309 40
662 l0 327 -67 21 c-148 46 -421 91 -667 110 -148 11 -516 11 -656 -1z m835
-52 c166 -23 280 -44 400 -74 l110 -28 0 -385 c0 -407 -4 -462 -51 -660 -73
-311 -218 -610 -412 -851 -131 -162 -329 -339 -484 -431 l-68 -40 -76 47
c-153 96 -339 260 -452 400 -31 39 -60 72 -64 75 -4 3 -30 41 -58 84 -215 329
-330 663 -360 1040 -5 71 -10 259 -10 418 l0 288 24 10 c98 37 439 101 636
120 146 13 735 4 865 -13z"/>
<path d="M1322 2264 l3 -199 33 -11 c17 -5 37 -15 44 -22 7 -7 37 -12 68 -12
89 0 100 -15 74 -99 -6 -20 -4 -23 10 -18 22 9 56 -9 56 -29 0 -12 9 -9 43 11
33 18 58 25 98 25 85 0 96 -22 55 -107 -25 -50 -40 -63 -77 -63 -33 0 -164
-138 -147 -155 2 -2 45 -24 95 -49 69 -34 96 -53 113 -81 l22 -35 191 2 192 3
14 70 c9 48 15 192 18 461 l5 392 -89 20 c-215 50 -434 79 -666 89 l-157 6 2
-199z"/>
<path d="M1184 2007 c5 -20 2 -27 -15 -32 -11 -4 -25 -19 -32 -33 -6 -15 -17
-35 -25 -44 -13 -16 -13 -18 1 -18 13 0 14 -5 4 -30 -10 -25 -8 -36 8 -68 11
-20 20 -39 22 -41 1 -2 9 2 17 8 12 10 15 7 14 -21 0 -18 6 -51 15 -73 32 -80
14 -164 -51 -232 -34 -38 -61 -42 -87 -13 -25 27 -21 91 10 173 46 123 24 206
-61 236 -37 13 -44 12 -80 -5 -69 -34 -83 -84 -58 -211 5 -27 3 -33 -11 -33
-9 0 -15 -6 -12 -12 6 -19 58 -16 71 4 8 14 7 23 -2 39 -12 18 -12 23 0 30 10
7 10 9 0 9 -7 0 -19 15 -28 33 -14 30 -14 37 0 70 11 27 26 42 51 53 45 18 78
10 110 -28 34 -40 32 -84 -7 -171 -31 -72 -46 -155 -34 -200 3 -13 22 -49 43
-78 31 -45 38 -64 41 -117 4 -54 1 -67 -22 -102 -14 -22 -39 -49 -54 -60 l-29
-21 17 -52 c9 -29 20 -73 24 -99 l7 -48 84 0 83 0 -10 28 c-11 27 -13 28 -52
21 -50 -9 -60 -1 -51 42 5 23 29 55 74 99 72 71 105 128 116 205 11 73 17 85
84 162 34 39 61 74 61 77 0 4 -11 11 -24 15 -16 7 -25 20 -29 45 -3 20 -16 50
-28 68 -13 18 -17 28 -8 23 32 -18 59 -50 69 -81 7 -21 18 -34 28 -34 9 0 35
-11 57 -25 27 -16 55 -24 85 -25 45 0 110 -30 110 -50 0 -5 5 -10 11 -10 6 0
8 7 5 17 -6 16 -6 16 12 0 25 -23 35 -21 22 4 -7 11 -10 23 -7 25 2 2 10 -7
17 -21 7 -14 19 -25 27 -25 11 0 11 5 -1 28 -20 39 -44 58 -111 88 -97 42
-149 86 -180 151 -15 32 -34 67 -43 77 -16 18 -16 18 6 7 27 -14 28 -7 2 29
-11 16 -43 40 -72 54 -30 15 -44 26 -32 26 11 0 25 5 31 11 8 8 13 6 17 -7 4
-11 22 -29 41 -41 29 -18 34 -19 40 -5 5 14 -9 31 -27 32 -4 0 -9 9 -13 20 -9
29 12 60 41 60 17 0 27 8 34 26 6 14 10 27 10 30 0 2 -23 4 -50 4 -36 0 -59 6
-79 21 -22 16 -45 21 -97 23 -38 1 -78 6 -88 11 -17 7 -18 5 -12 -18z m203
-44 c3 -7 -3 -9 -17 -6 -29 8 -37 25 -9 21 12 -1 24 -8 26 -15z"/>
<path d="M1480 1860 c14 -4 39 -8 55 -8 l30 0 -30 8 c-16 4 -41 8 -55 8 l-25
0 25 -8z"/>
<path d="M1701 1859 c-13 -5 -54 -32 -90 -58 -36 -27 -78 -55 -94 -62 -22 -10
-26 -17 -20 -33 4 -12 6 -32 6 -46 -1 -25 12 -50 27 -50 4 0 19 17 32 38 41
61 108 121 149 133 35 11 37 13 21 25 -15 12 -14 13 13 14 l30 1 -25 14 -25
14 28 1 c15 0 27 5 27 10 0 12 -47 12 -79 -1z"/>
<path d="M390 1330 c0 -39 97 -292 162 -420 149 -297 356 -539 613 -719 l75
-52 0 315 0 316 -114 0 c-129 0 -146 8 -146 64 0 17 -7 56 -15 86 -33 118 -33
115 23 165 76 68 80 125 15 217 l-26 38 -293 0 c-179 0 -294 -4 -294 -10z"/>
<path d="M1325 1291 c-12 -23 -34 -131 -35 -173 0 -3 16 -15 35 -27 47 -27 49
-67 5 -84 -22 -8 -28 -16 -24 -27 4 -8 16 -48 28 -87 l21 -73 82 0 c46 0 83 2
83 4 0 3 -4 16 -9 29 -9 23 -13 24 -48 16 -53 -12 -52 -12 -63 16 -13 34 5 70
46 94 69 41 79 112 30 210 -26 51 -100 131 -122 131 -7 0 -20 -13 -29 -29z"/>
</g>
</svg>
