<?xml version="1.0" encoding="UTF-8" standalone="no"?><!DOCTYPE svg PUBLIC "-//W3C//DTD SVG 1.1//EN" "http://www.w3.org/Graphics/SVG/1.1/DTD/svg11.dtd"><svg width="100%" height="100%" viewBox="0 0 40 59" version="1.1" xmlns="http://www.w3.org/2000/svg" xmlns:xlink="http://www.w3.org/1999/xlink" xml:space="preserve" style="fill-rule:evenodd;clip-rule:evenodd;stroke-linejoin:round;stroke-miterlimit:1.41421;"><g id="Ausbildung"><path d="M37.857,20.052c-0.109,7.544 -4.769,14.431 -11.936,17.008c-7.056,2.536 -15.123,0.362 -19.961,-5.357c-4.923,-5.819 -5.609,-14.384 -1.698,-20.922c3.89,-6.503 11.688,-9.977 19.124,-8.447c8.413,1.731 14.348,9.2 14.471,17.718c0.011,0.766 1.203,0.768 1.192,0c-0.117,-8.099 -5.134,-15.408 -12.811,-18.158c-7.616,-2.727 -16.379,-0.226 -21.446,6.058c-5.001,6.201 -5.655,15.125 -1.559,21.972c4.082,6.824 12.121,10.472 19.947,9.093c9.175,-1.616 15.736,-9.755 15.869,-18.965c0.011,-0.768 -1.181,-0.768 -1.192,0" style="fill:#f2bc1b;fill-rule:nonzero;"/><path d="M15.206,33.253c-1.127,-3.702 -2.253,-7.404 -3.38,-11.107c-0.332,0.194 -0.664,0.387 -0.996,0.58c1.341,1.056 2.682,2.111 4.024,3.166c0.29,0.228 0.732,0.247 0.936,-0.121c0.733,-1.323 1.466,-2.647 2.2,-3.97l-1.03,0c0.769,1.252 1.538,2.504 2.308,3.756c0.236,0.385 0.792,0.385 1.028,0c0.77,-1.252 1.539,-2.504 2.308,-3.756l-1.03,0c0.829,1.384 1.657,2.767 2.485,4.15c0.177,0.296 0.692,0.433 0.936,0.121c0.871,-1.115 1.742,-2.23 2.613,-3.346c-0.332,-0.193 -0.665,-0.386 -0.996,-0.58l-1.972,11.107c-0.133,0.75 1.015,1.071 1.149,0.317l1.972,-11.106c0.091,-0.512 -0.589,-1.102 -0.996,-0.58c-0.871,1.115 -1.742,2.23 -2.613,3.346c0.312,0.04 0.624,0.08 0.936,0.12l-2.484,-4.151c-0.233,-0.389 -0.795,-0.381 -1.03,0c-0.768,1.252 -1.537,2.504 -2.306,3.756l1.028,0c-0.769,-1.252 -1.537,-2.504 -2.306,-3.756c-0.229,-0.372 -0.808,-0.4 -1.03,0c-0.733,1.324 -1.466,2.647 -2.199,3.971c0.312,-0.04 0.624,-0.081 0.936,-0.121l-4.024,-3.165c-0.43,-0.338 -1.187,-0.046 -0.996,0.58l3.38,11.106c0.223,0.731 1.373,0.419 1.149,-0.317" style="fill:#f2bc1b;fill-rule:nonzero;"/><path d="M26.59,42.103c0,2.209 0.046,4.424 0,6.632c-0.043,2.068 -1.021,3.729 -3.297,3.878c-1.062,0.07 -2.152,0 -3.216,0c-2.982,0 -6.388,0.27 -6.513,-3.773c-0.069,-2.241 0,-4.495 0,-6.737c0,-0.767 -1.192,-0.769 -1.192,0c0,2.538 -0.299,5.247 0.036,7.765c0.547,4.117 4.519,3.937 7.669,3.937c3.11,0 7.075,0.204 7.659,-3.858c0.364,-2.533 0.046,-5.287 0.046,-7.844c0,-0.767 -1.192,-0.769 -1.192,0" style="fill:#f2bc1b;fill-rule:nonzero;"/><path d="M23.231,56.243c-0.254,1.792 -5.736,1.761 -5.986,0c-0.108,-0.757 -1.256,-0.435 -1.15,0.317c0.425,2.988 7.862,2.985 8.286,0c0.106,-0.751 -1.042,-1.075 -1.15,-0.317" style="fill:#f2bc1b;fill-rule:nonzero;"/></g></svg>