<?xml version="1.0" encoding="UTF-8" standalone="no"?><!DOCTYPE svg PUBLIC "-//W3C//DTD SVG 1.1//EN" "http://www.w3.org/Graphics/SVG/1.1/DTD/svg11.dtd"><svg width="100%" height="100%" viewBox="0 0 44 43" version="1.1" xmlns="http://www.w3.org/2000/svg" xmlns:xlink="http://www.w3.org/1999/xlink" xml:space="preserve" style="fill-rule:evenodd;clip-rule:evenodd;stroke-linecap:round;stroke-linejoin:round;stroke-miterlimit:1.5;"><g id="Gemeinsachft"><g id="Person"><circle cx="36.862" cy="11.287" r="6.563" style="fill:none;stroke:#487b97;stroke-width:1.07px;"/><path d="M42.81,36.665l-12.511,0l0,-8.104c-0.09,-4.987 3.895,-6.757 6.256,-6.857c2.375,-0.101 6.223,1.951 6.255,6.857l0,8.104Z" style="fill:none;stroke:#487b97;stroke-width:1.07px;"/><path d="M33.669,33.414c-2.786,-0.953 -3.37,-4.853 -3.37,-4.853" style="fill:none;stroke:#487b97;stroke-width:1.07px;"/><path d="M39.441,33.414c2.785,-0.953 3.369,-4.853 3.369,-4.853" style="fill:none;stroke:#487b97;stroke-width:1.07px;"/></g><g id="Person1"><circle cx="21.443" cy="8.037" r="6.563" style="fill:none;stroke:#487b97;stroke-width:1.07px;"/><path d="M27.391,33.414l-12.51,0l0,-8.104c-0.091,-4.987 3.894,-6.757 6.255,-6.857c2.375,-0.101 6.224,1.951 6.255,6.857l0,8.104Z" style="fill:none;stroke:#487b97;stroke-width:1.07px;"/><path d="M18.25,30.163c-2.785,-0.953 -3.369,-4.853 -3.369,-4.853" style="fill:none;stroke:#487b97;stroke-width:1.07px;"/><path d="M24.022,30.163c2.785,-0.953 3.369,-4.853 3.369,-4.853" style="fill:none;stroke:#487b97;stroke-width:1.07px;"/></g><g id="Person2"><circle cx="7.14" cy="16.333" r="6.563" style="fill:none;stroke:#487b97;stroke-width:1.07px;"/><path d="M13.088,41.71l-12.511,0l0,-8.103c-0.091,-4.987 3.894,-6.758 6.255,-6.858c2.375,-0.101 6.224,1.952 6.256,6.858l0,8.103Z" style="fill:none;stroke:#487b97;stroke-width:1.07px;"/><path d="M3.946,38.459c-2.785,-0.952 -3.369,-4.852 -3.369,-4.852" style="fill:none;stroke:#487b97;stroke-width:1.07px;"/><path d="M9.718,38.459c2.786,-0.952 3.37,-4.852 3.37,-4.852" style="fill:none;stroke:#487b97;stroke-width:1.07px;"/></g></g></svg>