<?xml version="1.0" encoding="UTF-8" standalone="no"?><!DOCTYPE svg PUBLIC "-//W3C//DTD SVG 1.1//EN" "http://www.w3.org/Graphics/SVG/1.1/DTD/svg11.dtd"><svg width="100%" height="100%" viewBox="0 0 59 38" version="1.1" xmlns="http://www.w3.org/2000/svg" xmlns:xlink="http://www.w3.org/1999/xlink" xml:space="preserve" style="fill-rule:evenodd;clip-rule:evenodd;stroke-miterlimit:10;"><g id="Aktivitäten"><path d="M33.18,8.669c2.809,-0.983 5.617,-1.967 8.425,-2.951c0.683,-0.239 0.389,-1.333 -0.3,-1.091l-8.426,2.951c-0.682,0.24 -0.388,1.333 0.301,1.091" style="fill:#d22a28;fill-rule:nonzero;"/><path d="M33.892,11.759c5.424,-1.9 10.848,-3.8 16.272,-5.7c0.682,-0.24 0.389,-1.333 -0.301,-1.091c-5.424,1.9 -10.848,3.8 -16.272,5.7c-0.683,0.239 -0.389,1.333 0.301,1.091" style="fill:#d22a28;fill-rule:nonzero;"/><path d="M53.715,4.814c1.598,-0.559 3.194,-1.119 4.791,-1.678c0.683,-0.239 0.389,-1.333 -0.301,-1.091c-1.596,0.559 -3.193,1.119 -4.79,1.678c-0.683,0.239 -0.389,1.333 0.3,1.091" style="fill:#d22a28;fill-rule:nonzero;"/><path d="M39.13,14.004c4.79,-1.678 9.581,-3.356 14.372,-5.035c0.682,-0.239 0.389,-1.332 -0.301,-1.091c-4.791,1.679 -9.582,3.357 -14.372,5.035c-0.683,0.239 -0.389,1.333 0.301,1.091" style="fill:#d22a28;fill-rule:nonzero;"/><path d="M9.532,14.622l3.185,-3.189l0.016,0.004l-0.508,-1.891c-2.869,2.029 -4.745,5.37 -4.745,9.152c0,1.04 0.145,2.046 0.41,3.002l2.811,-2.726l-1.169,-4.352Z" style="fill:none;stroke:#d22a28;stroke-width:1.48px;"/><path d="M24.661,10.73l-4.337,-1.186l-3.212,3.121l1.158,4.309l0.011,0.04l4.368,1.183" style="fill:none;stroke:#d22a28;stroke-width:1.48px;"/><path d="M18.27,16.972l-3.193,3.157l1.138,4.351l0.023,-0.023" style="fill:none;stroke:#d22a28;stroke-width:1.48px;"/><path d="M28.642,23.854l0.48,-0.927c0.038,-0.098 0.075,-0.198 0.11,-0.298c0.422,-1.189 0.653,-2.526 0.653,-3.849c0,-0.915 -0.112,-1.885 -0.318,-2.736" style="fill:none;stroke:#d22a28;stroke-width:1.48px;"/><path d="M17.112,12.665l3.212,-3.121l-0.553,-1.996c-0.358,-0.034 -0.721,-0.053 -1.088,-0.053c-2.406,0 -4.632,0.761 -6.458,2.051l0.508,1.891l4.379,1.228Z" style="fill:none;stroke:#d22a28;stroke-width:1.48px;"/><path d="M25.834,15.008l3.732,1.036c-0.612,-2.482 -2.062,-4.677 -4.02,-6.198l-0.885,0.884l1.173,4.278Z" style="fill:none;stroke:#d22a28;stroke-width:1.48px;"/><path d="M25.546,9.847c-1.617,-1.251 -3.628,-2.087 -5.775,-2.298" style="fill:#262626;fill-rule:nonzero;stroke:#d22a28;stroke-width:1.48px;"/><path d="M23.828,22.498l-3.193,3.248l0.985,3.763c2.855,-0.775 5.556,-3.163 7.022,-5.655l-0.471,-0.141l-4.343,-1.215Z" style="fill:none;stroke:#d22a28;stroke-width:1.48px;"/><path d="M16.189,24.472l-1.135,-4.334l-4.353,-1.164l-2.811,2.726c0.604,2.173 1.844,4.08 3.51,5.507l1.254,0.842l3.535,-3.577Z" style="fill:none;stroke:#d22a28;stroke-width:1.48px;"/><path d="M12.654,28.049l0.609,0.453c1.606,0.89 3.453,1.398 5.42,1.398c1.008,0 2.007,-0.142 2.937,-0.391" style="fill:none;stroke:#d22a28;stroke-width:1.48px;"/><path d="M9.532,14.622l-1.159,-0.369" style="fill:none;stroke:#d22a28;stroke-width:1.48px;"/><path d="M22.649,18.197l3.185,-3.188" style="fill:none;stroke:#d22a28;stroke-width:1.48px;"/><path d="M22.649,18.197l1.179,4.301" style="fill:none;stroke:#d22a28;stroke-width:1.48px;"/><path d="M16.215,24.48l4.42,1.266" style="fill:none;stroke:#d22a28;stroke-width:1.48px;"/></g></svg>