<?xml version="1.0" encoding="UTF-8" standalone="no"?>
<svg
   xmlns:dc="http://purl.org/dc/elements/1.1/"
   xmlns:cc="http://creativecommons.org/ns#"
   xmlns:rdf="http://www.w3.org/1999/02/22-rdf-syntax-ns#"
   xmlns:svg="http://www.w3.org/2000/svg"
   xmlns="http://www.w3.org/2000/svg"
   xmlns:sodipodi="http://sodipodi.sourceforge.net/DTD/sodipodi-0.dtd"
   xmlns:inkscape="http://www.inkscape.org/namespaces/inkscape"
   width="100%"
   height="100%"
   viewBox="150 5 167 200"
   version="1.1"
   xml:space="preserve"
   style="fill-rule:evenodd;clip-rule:evenodd;stroke-linecap:round;stroke-linejoin:round;stroke-miterlimit:10;"
   id="svg2"
   inkscape:version="0.91 r13725"
   sodipodi:docname="lion.svg"
   inkscape:export-filename="D:\dev\GetStrong\NewGetStrongWebsite\NewGetStrongWebsite\wwwroot\images\lion.png"
   inkscape:export-xdpi="90"
   inkscape:export-ydpi="90"><metadata
     id="metadata43"><rdf:RDF><cc:Work
         rdf:about=""><dc:format>image/svg+xml</dc:format><dc:type
           rdf:resource="http://purl.org/dc/dcmitype/StillImage" /><dc:title /></cc:Work></rdf:RDF></metadata><defs
     id="defs41" /><sodipodi:namedview
     pagecolor="#ffffff"
     bordercolor="#666666"
     borderopacity="1"
     objecttolerance="10"
     gridtolerance="10"
     guidetolerance="10"
     inkscape:pageopacity="0"
     inkscape:pageshadow="2"
     inkscape:window-width="1920"
     inkscape:window-height="1017"
     id="namedview39"
     showgrid="false"
     inkscape:zoom="2.36"
     inkscape:cx="32.298035"
     inkscape:cy="51.614734"
     inkscape:window-x="1912"
     inkscape:window-y="-8"
     inkscape:window-maximized="1"
     inkscape:current-layer="svg2" /><g
     id="g4179"
     transform="matrix(2.0441914,0,0,2.0441914,-245.42201,-89.697247)"><path
       transform="translate(150,5)"
       inkscape:connector-curvature="0"
       id="path4171"
       d="m 64.732957,133.91726 c 0,-2.53357 -0.994749,-7.35485 -2.337188,-11.3277 -0.480545,-1.42214 -0.842471,-2.60811 -0.804282,-2.63548 0.03819,-0.0274 0.403123,-0.27583 0.810962,-0.55212 2.301008,-1.55886 4.978822,-4.47336 6.047214,-6.58173 2.047092,-4.03974 1.235777,-9.77587 -1.93062,-13.649784 -1.479422,-1.809996 -2.992576,-4.406544 -3.510029,-6.023157 -0.287617,-0.898561 -0.479069,-2.1758 -0.541756,-3.61423 -0.129925,-2.981316 0.421844,-5.082492 2.651543,-10.097274 2.18029,-4.903657 2.66525,-6.471144 2.677034,-8.652726 0.0077,-1.424467 -0.08553,-1.897753 -0.584223,-2.966102 -1.934675,-4.144622 -6.77853,-5.455089 -10.441173,-2.824778 -2.507238,1.800563 -3.547965,5.598759 -2.237784,8.166928 0.488238,0.957024 1.980397,2.340396 2.7264,2.527632 0.265307,0.06659 0.482377,0.194506 0.482377,0.284262 0,0.289066 -1.225772,0.681297 -1.679297,0.537354 -0.59372,-0.188441 -0.558749,-0.05912 0.281783,1.04204 0.956608,1.253225 1.134705,2.34167 0.586089,3.581905 -0.500006,1.130348 -1.196799,1.63682 -2.445537,1.777572 -1.691639,0.190672 -3.032541,-0.859326 -3.417356,-2.675974 l -0.15223,-0.718655 0.487121,0.453824 c 0.267917,0.249602 0.664157,0.453822 0.880532,0.453822 0.465789,0 1.433471,-0.908788 1.433471,-1.346227 0,-0.168392 -0.333759,-1.170379 -0.741687,-2.226637 -1.85649,-4.807066 -1.284659,-9.152598 1.606691,-12.209774 5.443915,-5.756137 14.46661,-2.113805 15.162703,6.120964 0.177064,2.09467 -0.31771,4.389888 -1.763045,8.178623 -1.844692,4.835593 -2.22114,6.115869 -2.343176,7.968994 -0.137995,2.095477 0.183654,3.57922 1.028843,4.745968 1.301583,1.796784 2.815013,2.147157 4.488001,1.039015 2.450181,-1.622932 5.532888,-6.168714 6.401159,-9.439189 0.89006,-3.352551 -0.02922,-8.412663 -2.134095,-11.747002 l -0.545775,-0.864565 0.340932,-1.359426 c 0.205915,-0.821072 0.285159,-1.656718 0.200097,-2.11013 l -0.140832,-0.750701 -0.474456,1.014874 c -0.260951,0.558181 -0.674144,1.192419 -0.918207,1.409419 -0.43795,0.389383 -0.445517,0.386614 -0.578719,-0.211865 -0.306974,-1.379264 -0.591328,-2.028329 -1.484076,-3.387564 -0.516486,-0.786363 -0.999311,-1.750896 -1.072947,-2.143405 -0.231365,-1.233284 0.02802,-2.740065 0.627666,-3.646197 0.649588,-0.981596 0.670099,-1.069073 0.250653,-1.069073 -0.382802,0 -1.808035,-0.665414 -1.808035,-0.844137 0,-0.07153 0.340294,-0.253115 0.756208,-0.403511 0.791873,-0.286345 1.570557,-1.292703 1.575578,-2.036251 0.0097,-1.429152 2.226055,-4.147292 3.633886,-4.456503 0.546497,-0.120031 0.61623,-0.207579 0.474985,-0.596328 -0.210528,-0.579438 -0.239985,-3.01996 -0.03887,-3.2207 0.08348,-0.08333 0.487091,0.142901 0.896911,0.502728 0.988101,0.867564 1.873419,1.082228 4.734557,1.147993 2.388006,0.05489 2.393148,0.05394 2.273506,-0.421681 -0.145881,-0.579922 -0.09307,-0.583815 0.918579,-0.06771 0.440919,0.224941 1.414345,0.476166 2.163169,0.558278 1.739674,0.190762 2.678765,0.67022 3.661329,1.869308 l 0.786432,0.959737 4.132951,-0.01797 c 2.273123,-0.0099 4.185131,0.03421 4.248906,0.09798 0.0638,0.06377 -0.172448,0.720252 -0.524942,1.458837 -0.352496,0.738586 -0.72296,1.818609 -0.823254,2.400052 -0.153161,0.887934 -0.248581,1.044907 -0.596055,0.980577 -1.715981,-0.317691 -2.550371,-0.260608 -3.273871,0.223975 -2.480708,1.661519 -1.60397,5.348852 1.378125,5.796045 1.077059,0.161515 1.187023,0.4413 0.533932,1.358483 -0.23015,0.323214 -0.514265,0.839665 -0.631366,1.147668 l -0.212916,0.560005 -1.328379,-0.978919 C 93.826491,63.868539 92.687466,63.154427 92.025934,62.820029 91.3644,62.485631 90.767792,62.122467 90.700135,62.012997 90.63248,61.903527 90.522097,61.353195 90.454841,60.790036 90.265205,59.202149 90.206483,59.116 89.728197,59.72404 c -0.232477,0.295549 -0.481439,0.831112 -0.553244,1.190139 -0.0718,0.359028 -0.142509,0.652778 -0.157117,0.652778 -0.01462,0 -0.6939,-0.141353 -1.509533,-0.314118 -2.190873,-0.464063 -3.09502,-0.371834 -1.165176,0.118856 2.820519,0.717156 4.950697,1.932804 6.99533,3.992087 1.110242,1.118196 2.068138,2.318131 2.489407,3.118425 0.376614,0.715464 0.684754,1.366777 0.684754,1.447364 0,0.08059 -0.309851,-0.04441 -0.688559,-0.277762 -0.378708,-0.233356 -1.212924,-0.629034 -1.853814,-0.879284 l -1.165254,-0.454998 1.179197,1.056032 c 1.257901,1.126516 2.074608,2.471038 3.151867,5.188824 1.018987,2.570771 1.348902,3.110042 2.833646,4.631775 2.656109,2.722284 5.193449,4.314778 10.582939,6.642115 4.1395,1.787559 5.00898,2.326841 6.14426,3.810883 0.84339,1.102496 1.92808,3.185758 2.17439,4.176157 0.14143,0.568714 0.12284,0.582608 -0.7785,0.581843 -0.92044,-8.47e-4 -0.92563,-0.0051 -1.62399,-1.355744 -0.38533,-0.745228 -1.02521,-1.722101 -1.42195,-2.170828 l -0.72136,-0.815864 0.71635,1.377118 c 0.39399,0.757415 0.7823,1.73464 0.86291,2.17161 0.14579,0.79038 0.14287,0.79446 -0.56559,0.788191 -0.64516,-0.0057 -0.77985,-0.124566 -1.43219,-1.263847 -0.39604,-0.691651 -0.95199,-1.475363 -1.23546,-1.741581 l -0.5154,-0.484034 0.54516,1.059322 c 0.29984,0.582627 0.60553,1.369174 0.67931,1.747882 0.1277,0.655394 0.1031,0.688559 -0.51064,0.688559 -0.49832,0 -0.74215,-0.156424 -1.07333,-0.688559 -0.7417,-1.191725 -2.41802,-2.657979 -3.73738,-3.269036 -1.556,-0.720651 -4.01843,-0.897115 -5.81522,-0.416733 l -1.15421,0.30858 -0.8613,-0.705775 c -2.006611,-1.644267 -6.036219,-3.491189 -7.617062,-3.491189 -0.42301,0 -0.52089,-0.156422 -0.720818,-1.151943 -0.49597,-2.469612 -2.437745,-5.235332 -4.690661,-6.681023 -0.549923,-0.352886 -1.064116,-0.64161 -1.142648,-0.64161 -0.07853,0 0.270953,0.507964 0.776638,1.128807 1.901904,2.335027 3.110873,5.140475 3.110873,7.218877 0,1.284833 -0.09921,1.20243 1.931883,1.604589 0.654697,0.129629 1.352905,0.354547 1.551572,0.499816 0.329227,0.240737 0.278693,0.375928 -0.570731,1.526782 -0.512566,0.694459 -2.107676,2.54973 -3.544686,4.122824 -3.160634,3.459936 -4.287907,4.943375 -5.213943,6.861303 -0.788549,1.63316 -1.019447,2.63295 -1.34722,5.83341 -0.502401,4.90555 -3.018583,9.57856 -7.164842,13.30643 -5.445023,4.89558 -6.510677,6.45315 -6.510677,9.5161 0,0.95398 0.06867,1.80342 0.152591,1.88764 0.08393,0.0842 1.512526,-0.095 3.174667,-0.39825 1.662142,-0.30325 3.085614,-0.48315 3.163275,-0.39976 0.152825,0.16408 1.878111,4.18592 1.878111,4.37809 0,0.0642 -2.86017,0.11673 -6.355933,0.11673 l -6.355932,0 0,-0.95478 z M 90.890131,52.403821 c -0.08123,-0.378707 -0.189765,-0.760063 -0.241201,-0.847457 -0.05144,-0.08739 -0.874443,-0.152258 -1.828901,-0.144142 l -1.735377,0.01476 0.95339,0.301738 c 0.524364,0.165957 1.334746,0.531685 1.800847,0.81273 1.129238,0.680897 1.224132,0.668474 1.051242,-0.137626 z"
       style="fill:#558a3d;fill-opacity:1" /><path
       transform="translate(150,5)"
       inkscape:connector-curvature="0"
       id="path4173"
       d="m 100.73357,77.820812 c -1.518907,-1.173228 -1.668482,-1.388665 -1.968573,-2.835382 -0.165212,-0.796474 -0.271161,-1.479587 -0.235442,-1.518029 0.03572,-0.03844 0.311562,0.0917 0.612986,0.289197 0.301424,0.197501 0.548043,0.323501 0.548043,0.280002 0,-0.0435 -0.427011,-1.168766 -0.948913,-2.500594 -0.521903,-1.331827 -0.927094,-2.434354 -0.900424,-2.450059 0.02667,-0.01571 0.525185,-0.201179 1.107812,-0.412163 1.525021,-0.552251 3.074161,-1.527296 7.176601,-4.517031 6.83837,-4.983595 7.09263,-5.118374 9.94991,-5.27421 1.06771,-0.05823 2.29818,-0.02626 2.73439,0.07105 l 0.79311,0.176925 -0.40023,0.657316 c -0.38504,0.632361 -0.46743,0.661588 -2.17023,0.769837 -0.97349,0.06189 -2.08492,0.24279 -2.46982,0.402006 -0.65805,0.272203 -0.5737,0.289517 1.41296,0.290015 1.16203,2.97e-4 2.16859,0.05634 2.2368,0.124543 0.0682,0.06821 0.0189,0.42549 -0.10953,0.793962 -0.23205,0.665637 -0.2433,0.670044 -1.74884,0.684839 -2.08864,0.02053 -2.74258,0.298678 -1.16613,0.49601 0.65815,0.08238 1.43959,0.215644 1.73655,0.296137 0.52122,0.141283 0.52747,0.162521 0.18049,0.61313 -0.2613,0.339348 -0.73518,0.526409 -1.73583,0.685204 -3.47787,0.551907 -7.28778,3.569994 -11.18908,8.863611 -0.71051,0.964084 -1.64353,2.322665 -2.07337,3.019068 -0.42985,0.696402 -0.83949,1.263154 -0.91032,1.259449 -0.0708,-0.0037 -0.27915,-0.12288 -0.46292,-0.264831 z"
       style="fill:#558a3d;fill-opacity:1" /><path
       transform="translate(150,5)"
       inkscape:connector-curvature="0"
       id="path4175"
       d="m 88.038042,134.35924 c 0,-0.9774 -1.647326,-7.022 -2.689465,-9.86855 -0.998716,-2.72795 -1.026866,-2.86275 -0.608914,-2.91582 3.056519,-0.38815 4.871468,-2.49025 3.84817,-4.45699 -0.421283,-0.8097 -1.113586,-1.39015 -2.456571,-2.05969 -0.64089,-0.31951 -1.561868,-0.8644 -2.046619,-1.21085 l -0.881365,-0.62992 0.413628,-1.196 c 0.659028,-1.90556 0.837395,-2.92444 1.025331,-5.85701 0.126645,-1.97617 0.30755,-3.10159 0.640379,-3.98382 0.466003,-1.23525 2.432342,-4.38482 2.737526,-4.38482 0.372507,0 3.23221,2.182819 4.490094,3.4273 4.794004,4.74292 7.928114,11.97574 6.971032,16.08755 -0.617465,2.65274 -2.40854,4.88775 -5.041524,6.29112 -2.041568,1.08814 -3.014929,2.58261 -3.009802,4.62115 0.0028,1.09307 0.91322,3.04812 1.418268,3.04544 0.209281,-0.001 1.659459,-0.23964 3.222619,-0.53006 1.563159,-0.29043 2.868502,-0.50166 2.900761,-0.4694 0.06202,0.062 1.47603,3.31598 1.79317,4.12648 l 0.18652,0.47669 -6.456618,0 -6.45662,0 0,-0.5128 z"
       style="fill:#558a3d;fill-opacity:1" /><path
       transform="translate(150,5)"
       inkscape:connector-curvature="0"
       id="path4177"
       d="m 98.018074,59.897433 c -2.38269,-0.795545 -2.407524,-0.810571 -1.912604,-1.157227 0.696905,-0.488131 1.199004,-0.446644 3.741279,0.309127 1.596181,0.474516 2.468051,0.627681 3.098231,0.54428 l 0.87696,-0.116063 -0.6919,0.620975 c -0.95888,0.860582 -2.0622,0.81718 -5.111966,-0.201092 z"
       style="fill:#558a3d;fill-opacity:1" /></g></svg>