<?xml version="1.0" encoding="UTF-8" standalone="no"?>
<svg
   xmlns:dc="http://purl.org/dc/elements/1.1/"
   xmlns:cc="http://creativecommons.org/ns#"
   xmlns:rdf="http://www.w3.org/1999/02/22-rdf-syntax-ns#"
   xmlns:svg="http://www.w3.org/2000/svg"
   xmlns="http://www.w3.org/2000/svg"
   xmlns:sodipodi="http://sodipodi.sourceforge.net/DTD/sodipodi-0.dtd"
   xmlns:inkscape="http://www.inkscape.org/namespaces/inkscape"
   width="100%"
   height="100%"
   viewBox="150 5 167 200"
   version="1.1"
   xml:space="preserve"
   style="fill-rule:evenodd;clip-rule:evenodd;stroke-linecap:round;stroke-linejoin:round;stroke-miterlimit:10;"
   id="svg2"
   inkscape:version="0.91 r13725"
   sodipodi:docname="lion_white.svg"
   inkscape:export-filename="D:\dev\GetStrong\NewGetStrongWebsite\NewGetStrongWebsite\wwwroot\images\lion_white.png"
   inkscape:export-xdpi="90"
   inkscape:export-ydpi="90"><metadata
     id="metadata43"><rdf:RDF><cc:Work
         rdf:about=""><dc:format>image/svg+xml</dc:format><dc:type
           rdf:resource="http://purl.org/dc/dcmitype/StillImage" /><dc:title /></cc:Work></rdf:RDF></metadata><defs
     id="defs41" /><sodipodi:namedview
     pagecolor="#ffffff"
     bordercolor="#666666"
     borderopacity="1"
     objecttolerance="10"
     gridtolerance="10"
     guidetolerance="10"
     inkscape:pageopacity="0"
     inkscape:pageshadow="2"
     inkscape:window-width="1920"
     inkscape:window-height="1017"
     id="namedview39"
     showgrid="false"
     inkscape:zoom="2.36"
     inkscape:cx="29.939996"
     inkscape:cy="57.075455"
     inkscape:window-x="1912"
     inkscape:window-y="-8"
     inkscape:window-maximized="1"
     inkscape:current-layer="g4179" /><g
     id="g4179"><path
       inkscape:connector-curvature="0"
       id="path4171"
       d="m 193.59277,193.42876 c 0,-5.1791 -2.03346,-15.03472 -4.77766,-23.15598 -0.98232,-2.90712 -1.72218,-5.33147 -1.64411,-5.38743 0.0781,-0.056 0.82406,-0.56385 1.65777,-1.12863 4.70369,-3.18661 10.17766,-9.1444 12.36166,-13.45432 4.18465,-8.258 2.52617,-19.98376 -3.94656,-27.90277 -3.02422,-3.69998 -6.1174,-9.00782 -7.17518,-12.31248 -0.58794,-1.83684 -0.9793,-4.44777 -1.10744,-7.38819 -0.2656,-6.094385 0.86233,-10.389584 5.42026,-20.640767 4.45693,-10.024007 5.44828,-13.228251 5.47237,-17.687822 0.0157,-2.911883 -0.17485,-3.87937 -1.19427,-6.06328 -3.95484,-8.472401 -13.85661,-11.151246 -21.34375,-5.774386 -5.12527,3.680695 -7.25272,11.444934 -4.57445,16.694763 0.99805,1.95634 4.0483,4.784223 5.57328,5.166962 0.54234,0.136121 0.98606,0.397604 0.98606,0.581083 0,0.590911 -2.50571,1.392712 -3.4328,1.098458 -1.21367,-0.385204 -1.14219,-0.120847 0.57601,2.130129 1.9555,2.561833 2.31957,4.786822 1.19808,7.322103 -1.0221,2.310649 -2.44648,3.345967 -4.99914,3.633689 -3.45803,0.389779 -6.19909,-1.756615 -6.98572,-5.470192 l -0.3112,-1.469075 0.99577,0.927707 c 0.54768,0.510227 1.35767,0.927693 1.79998,0.927693 0.95216,0 2.93029,-1.85773 2.93029,-2.75194 0,-0.344232 -0.68227,-2.392482 -1.51615,-4.551676 -3.79502,-9.826561 -2.6261,-18.709661 3.28438,-24.959113 11.1284,-11.766645 29.57252,-4.321022 30.99547,12.512422 0.36196,4.281906 -0.64946,8.973772 -3.604,16.718674 -3.77091,9.884878 -4.54043,12.502002 -4.7899,16.290143 -0.28208,4.283565 0.37542,7.316615 2.10315,9.701675 2.66068,3.67297 5.75443,4.3892 9.17433,2.12394 5.00864,-3.31758 11.31028,-12.610025 13.08519,-19.295504 1.81946,-6.853256 -0.0598,-17.197099 -4.36249,-24.013125 l -1.11566,-1.767337 0.69692,-2.778926 c 0.42092,-1.678428 0.58292,-3.386649 0.40903,-4.31351 l -0.28788,-1.534576 -0.96988,2.074597 c -0.53344,1.141028 -1.37808,2.437532 -1.87699,2.881122 -0.89525,0.795973 -0.91072,0.790312 -1.18301,-0.433094 -0.62752,-2.819479 -1.20879,-4.146293 -3.03374,-6.924828 -1.05579,-1.607478 -2.04278,-3.579167 -2.19331,-4.38153 -0.47295,-2.521068 0.0572,-5.601217 1.28308,-7.453525 1.32787,-2.00657 1.36979,-2.18539 0.51238,-2.18539 -0.78253,0 -3.69597,-1.360233 -3.69597,-1.725578 0,-0.14622 0.69562,-0.517415 1.54584,-0.824853 1.61873,-0.585344 3.2105,-2.642533 3.22077,-4.162487 0.0198,-2.921459 4.55049,-8.477859 7.42836,-9.109944 1.11715,-0.245367 1.25969,-0.424332 0.97096,-1.21901 -0.43037,-1.184482 -0.49057,-6.173375 -0.0794,-6.583726 0.17065,-0.170343 0.9957,0.292117 1.83346,1.027671 2.01987,1.773468 3.82962,2.212282 9.67834,2.346718 4.88154,0.1122 4.89205,0.110268 4.64747,-0.861997 -0.2982,-1.18547 -0.19025,-1.193429 1.87776,-0.138411 0.90132,0.459822 2.8912,0.973373 4.42194,1.141226 3.55621,0.389954 5.4759,1.370059 7.48445,3.821223 l 1.60762,1.961886 8.44854,-0.03673 c 4.6467,-0.02024 8.55521,0.06993 8.68559,0.20029 0.13041,0.130358 -0.35253,1.472333 -1.0731,2.982141 -0.72056,1.509812 -1.47786,3.717585 -1.68289,4.906167 -0.31308,1.815106 -0.50814,2.135989 -1.21844,2.004487 -3.50779,-0.649422 -5.21345,-0.532733 -6.69242,0.457847 -5.07104,3.396463 -3.27883,10.934077 2.81714,11.848226 2.20173,0.330168 2.42652,0.902101 1.09147,2.776998 -0.47047,0.660711 -1.05125,1.716436 -1.29063,2.346054 l -0.43525,1.144757 -2.71546,-2.001098 c -1.49351,-1.100608 -3.82189,-2.560391 -5.17419,-3.243964 -1.35231,-0.683573 -2.57189,-1.42595 -2.71018,-1.649728 -0.13831,-0.223777 -0.36395,-1.348762 -0.50144,-2.499967 -0.38766,-3.245944 -0.50769,-3.422049 -1.4854,-2.179099 -0.47522,0.60416 -0.98414,1.698952 -1.13092,2.432873 -0.1468,0.73392 -0.29133,1.334402 -0.32119,1.334402 -0.0299,0 -1.41847,-0.288953 -3.08578,-0.642116 -4.47856,-0.948635 -6.32681,-0.7601 -2.38184,0.242962 5.76568,1.466006 10.12017,3.951022 14.29979,8.160591 2.26955,2.285807 4.22767,4.738703 5.08883,6.374658 0.76987,1.462545 1.39977,2.793953 1.39977,2.958689 0,0.164741 -0.6334,-0.09078 -1.40754,-0.567799 -0.77415,-0.477024 -2.47946,-1.285865 -3.78956,-1.797425 l -2.382,-0.930102 2.4105,2.158731 c 2.5714,2.302814 4.2409,5.051275 6.44302,10.606949 2.083,5.255154 2.75741,6.357523 5.79252,9.468235 5.4296,5.564871 10.6164,8.820229 21.63355,13.577762 8.46193,3.6541 10.23931,4.7565 12.56005,7.790167 1.72404,2.2537 3.94135,6.5123 4.44487,8.53686 0.28911,1.16256 0.2511,1.19096 -1.59141,1.1894 -1.88155,-9.4e-4 -1.89217,-0.0109 -3.31974,-2.77141 -0.7877,-1.52338 -2.09573,-3.5203 -2.90675,-4.43759 l -1.4746,-1.66777 1.46437,2.81509 c 0.80538,1.5483 1.59917,3.54594 1.76394,4.43918 0.29802,1.61569 0.29206,1.62404 -1.15616,1.61122 -1.31884,-0.0121 -1.59417,-0.25463 -2.92768,-2.58354 -0.80958,-1.41386 -1.94605,-3.01593 -2.52552,-3.56013 l -1.05356,-0.98946 1.1144,2.16547 c 0.61292,1.191 1.23782,2.79885 1.38864,3.573 0.26104,1.33975 0.21076,1.40754 -1.04385,1.40754 -1.01866,0 -1.5171,-0.31976 -2.19409,-1.40754 -1.51618,-2.43613 -4.94289,-5.43343 -7.63991,-6.68254 -3.18076,-1.47315 -8.21444,-1.83388 -11.88743,-0.85188 l -2.35943,0.6308 -1.76066,-1.44275 c -4.1019,-3.361187 -12.33918,-7.136647 -15.57073,-7.136647 -0.86471,0 -1.06481,-0.31976 -1.47349,-2.354795 -1.01386,-5.048354 -4.98321,-10.702026 -9.58861,-13.657296 -1.12415,-0.721357 -2.17525,-1.311569 -2.33579,-1.311569 -0.16054,0 0.55388,1.038373 1.5876,2.307498 3.88785,4.773239 6.35921,10.508114 6.35921,14.756772 0,2.62644 -0.20279,2.458 3.94914,3.28008 1.33833,0.26499 2.7656,0.72477 3.17172,1.02172 0.673,0.492117 0.5697,0.768457 -1.16668,3.121037 -1.04778,1.4196 -4.3085,5.21213 -7.24602,8.42785 -6.46094,7.07276 -8.7653,10.10519 -10.6583,14.0258 -1.61195,3.3385 -2.08395,5.38225 -2.75398,11.92462 -1.027,10.02788 -6.17056,19.5804 -14.64631,27.20088 -11.13067,10.00751 -13.30906,13.19148 -13.30906,19.45272 0,1.95013 0.14037,3.68655 0.31192,3.85871 0.17158,0.17211 3.09189,-0.1942 6.48963,-0.81411 3.39773,-0.6199 6.30758,-0.98764 6.46634,-0.81718 0.3124,0.33541 3.83921,8.55682 3.83921,8.94965 0,0.13124 -5.84673,0.23862 -12.99275,0.23862 l -12.99273,0 0,-1.95176 z M 247.06303,26.799691 c -0.16603,-0.774149 -0.38791,-1.553714 -0.49305,-1.732364 -0.10517,-0.178641 -1.78753,-0.311245 -3.73863,-0.294654 l -3.54744,0.03017 1.94892,0.61681 c 1.07189,0.339248 2.72847,1.086867 3.68128,1.661375 2.30837,1.391884 2.50235,1.36649 2.14892,-0.281333 z"
       style="fill:#ffffff;fill-opacity:1" /><path
       inkscape:connector-curvature="0"
       id="path4173"
       d="m 267.18492,78.756891 c -3.10494,-2.398314 -3.4107,-2.838699 -4.02415,-5.796069 -0.33772,-1.628146 -0.5543,-3.024559 -0.48128,-3.103141 0.0731,-0.07859 0.63688,0.187452 1.25305,0.591173 0.61618,0.40373 1.1203,0.661298 1.1203,0.572378 0,-0.08892 -0.87288,-2.389181 -1.93975,-5.111693 -1.06687,-2.722509 -1.89517,-4.976286 -1.84064,-5.00839 0.0546,-0.03212 1.07358,-0.411248 2.26458,-0.84254 3.11744,-1.128906 6.28418,-3.122084 14.67034,-9.233675 13.97895,-10.187422 14.4987,-10.462937 20.33953,-10.781495 2.18261,-0.119035 4.69792,-0.05369 5.58961,0.14524 l 1.62127,0.361669 -0.81813,1.343679 c -0.78711,1.292667 -0.95553,1.352412 -4.43638,1.573694 -1.99,0.126515 -4.26197,0.496309 -5.04879,0.821778 -1.34517,0.556434 -1.17274,0.591827 2.88836,0.592846 2.37541,6.07e-4 4.43302,0.11517 4.57245,0.254589 0.13941,0.139434 0.0386,0.869783 -0.2239,1.623011 -0.47435,1.360689 -0.49735,1.369698 -3.57496,1.399942 -4.26958,0.04196 -5.60636,0.610555 -2.38379,1.013939 1.34538,0.1684 2.9428,0.440818 3.54984,0.60536 1.06547,0.28881 1.07824,0.332225 0.36895,1.253356 -0.53414,0.693693 -1.50285,1.076081 -3.54837,1.400688 -7.10943,1.128203 -14.89761,7.297751 -22.87262,18.118917 -1.45242,1.970772 -3.35969,4.747977 -4.23837,6.171552 -0.87869,1.423576 -1.71607,2.582131 -1.86087,2.57456 -0.14472,-0.0073 -0.57063,-0.251195 -0.94628,-0.541368 z"
       style="fill:#ffffff;fill-opacity:1" /><path
       inkscape:connector-curvature="0"
       id="path4175"
       d="m 241.23283,194.33226 c 0,-1.99799 -3.36745,-14.35431 -5.49778,-20.17321 -2.04158,-5.57645 -2.09911,-5.85201 -1.24474,-5.96049 6.24811,-0.79346 9.95821,-5.09055 7.8664,-9.11095 -0.86119,-1.65516 -2.27639,-2.84173 -5.02171,-4.21039 -1.31009,-0.65314 -3.19276,-1.76701 -4.18368,-2.47522 l -1.80168,-1.28767 0.84554,-2.44484 c 1.34717,-3.89534 1.71179,-5.97813 2.09597,-11.97286 0.25888,-4.03967 0.62869,-6.34024 1.30905,-8.1437 0.95261,-2.52509 4.97217,-8.96341 5.59603,-8.96341 0.76148,0 6.60727,4.4621 9.17861,7.00607 9.79988,9.69543 16.20659,24.4807 14.25013,32.88603 -1.26222,5.4227 -4.92352,9.99148 -10.30585,12.86025 -4.17335,2.22436 -6.16309,5.27935 -6.1526,9.44651 0.006,2.23445 1.8668,6.23094 2.8992,6.22547 0.42781,-0.003 3.39227,-0.48987 6.58765,-1.08354 3.1954,-0.5937 5.86377,-1.02549 5.92972,-0.95955 0.12678,0.12674 3.01729,6.7785 3.66558,8.43532 l 0.38128,0.97444 -13.19856,0 -13.19856,0 0,-1.04826 z"
       style="fill:#ffffff;fill-opacity:1" /><path
       inkscape:connector-curvature="0"
       id="path4177"
       d="m 261.63392,42.118068 c -4.87067,-1.626245 -4.92144,-1.656961 -3.90973,-2.365593 1.42461,-0.997834 2.45099,-0.913025 7.6479,0.631915 3.26289,0.970002 5.04516,1.2831 6.33336,1.112611 l 1.79269,-0.237254 -1.41438,1.269392 c -1.96014,1.759194 -4.21553,1.670473 -10.44984,-0.411071 z"
       style="fill:#ffffff;fill-opacity:1" /></g></svg>