<?xml version="1.0" encoding="UTF-8" standalone="no"?><!DOCTYPE svg PUBLIC "-//W3C//DTD SVG 1.1//EN" "http://www.w3.org/Graphics/SVG/1.1/DTD/svg11.dtd"><svg width="100%" height="100%" viewBox="150 5 167 200" version="1.1" xmlns="http://www.w3.org/2000/svg" xmlns:xlink="http://www.w3.org/1999/xlink" xml:space="preserve" xmlns:serif="http://www.serif.com/" style="fill-rule:evenodd;clip-rule:evenodd;stroke-linecap:round;stroke-linejoin:round;stroke-miterlimit:10;">
<g id="Ebene-1" serif:id="Ebene 1"><path d="M233.182,12.987c-45.18,0 -73.16,9.985 -74.329,10.41l-1.975,0.719l0,42.921c0,10.781 1.196,21.709 3.555,32.482l0.006,0.028l0.012,0.066l0.003,0.014l0.007,0.049l0.012,0.044l0.033,0.174l0.021,0.051c9.207,41.494 35.467,78.031 70.372,97.965l2.269,1.348l1.484,-0.885c35.405,-19.883 62.044,-56.797 71.258,-98.744c2.373,-10.805 3.576,-21.77 3.576,-32.591l0,-41.589l0,-2.156l-2.044,-0.687c-1.167,-0.393 -29.117,-9.619 -74.26,-9.619m0,3c45.171,0 73.304,9.462 73.304,9.462l0,41.589c0,10.847 -1.224,21.554 -3.507,31.946l0.001,0c-9.026,41.088 -34.885,77.166 -69.797,96.772l-0.001,-0.002c-34.889,-19.59 -60.734,-55.633 -69.776,-96.686l-0.002,0c-0.002,-0.007 -0.002,-0.015 -0.005,-0.021c-0.004,-0.022 -0.01,-0.041 -0.014,-0.063l0.002,0c-2.283,-10.392 -3.509,-21.099 -3.509,-31.946l0,-0.001l0,-40.82c0,0 28.133,-10.23 73.304,-10.23" style="fill:#231f20;fill-rule:nonzero;"/><g><path d="M166.239,97.726c-2.094,-9.886 -3.154,-19.9 -3.154,-29.785l0,-38.795c5.214,-1.708 30.701,-9.366 68.597,-9.565l0,78.145l-65.443,0Z" style="fill:#f2be18;fill-rule:nonzero;"/><path d="M233.182,99.226l-68.16,0l-0.3,-1.423l-0.049,-0.234l-0.049,-0.235l-0.048,-0.234l-0.048,-0.234l-0.047,-0.234l-0.047,-0.235l-0.047,-0.234l-0.046,-0.235l-0.046,-0.234l-0.046,-0.235l-0.045,-0.234l-0.045,-0.235l-0.044,-0.234l-0.044,-0.235l-0.044,-0.235l-0.043,-0.234l-0.043,-0.235l-0.043,-0.235l-0.042,-0.235l-0.041,-0.235l-0.042,-0.235l-0.041,-0.235l-0.04,-0.235l-0.04,-0.235l-0.04,-0.235l-0.04,-0.235l-0.039,-0.235l-0.038,-0.235l-0.039,-0.235l-0.037,-0.235l-0.038,-0.236l-0.037,-0.235l-0.037,-0.235l-0.036,-0.235l-0.036,-0.236l-0.036,-0.235l-0.035,-0.235l-0.035,-0.236l-0.034,-0.235l-0.034,-0.235l-0.034,-0.236l-0.033,-0.235l-0.033,-0.236l-0.032,-0.235l-0.032,-0.236l-0.032,-0.235l-0.031,-0.236l-0.031,-0.235l-0.031,-0.236l-0.03,-0.235l-0.03,-0.236l-0.029,-0.235l-0.029,-0.236l-0.029,-0.235l-0.028,-0.236l-0.028,-0.236l-0.027,-0.235l-0.028,-0.236l-0.026,-0.235l-0.027,-0.236l-0.025,-0.236l-0.026,-0.235l-0.025,-0.236l-0.025,-0.235l-0.024,-0.236l-0.024,-0.236l-0.024,-0.235l-0.023,-0.236l-0.023,-0.236l-0.022,-0.235l-0.022,-0.236l-0.022,-0.235l-0.021,-0.236l-0.021,-0.236l-0.021,-0.235l-0.02,-0.236l-0.019,-0.235l-0.02,-0.236l-0.019,-0.236l-0.018,-0.235l-0.018,-0.236l-0.018,-0.235l-0.018,-0.236l-0.017,-0.235l-0.016,-0.236l-0.016,-0.235l-0.016,-0.235l-0.016,-0.236l-0.015,-0.235l-0.014,-0.236l-0.015,-0.235l-0.013,-0.235l-0.014,-0.236l-0.013,-0.235l-0.013,-0.235l-0.012,-0.236l-0.012,-0.235l-0.012,-0.235l-0.011,-0.235l-0.01,-0.235l-0.011,-0.236l-0.01,-0.235l-0.009,-0.235l-0.01,-0.235l-0.008,-0.235l-0.009,-0.235l-0.008,-0.235l-0.007,-0.235l-0.008,-0.235l-0.007,-0.235l-0.006,-0.235l-0.006,-0.234l-0.006,-0.235l-0.005,-0.235l-0.005,-0.235l-0.004,-0.234l-0.005,-0.235l-0.003,-0.235l-0.004,-0.234l-0.003,-0.235l-0.002,-0.234l-0.002,-0.235l-0.002,-0.234l-0.001,-0.234l-0.001,-0.235l-0.001,-0.234l0,-0.233l0,-39.884l1.161,-0.379l0.136,-0.045l0.144,-0.046l0.151,-0.048l0.158,-0.05l0.165,-0.053l0.173,-0.054l0.18,-0.056l0.187,-0.058l0.194,-0.06l0.202,-0.062l0.209,-0.063l0.216,-0.065l0.223,-0.067l0.231,-0.068l0.237,-0.07l0.245,-0.072l0.251,-0.073l0.259,-0.075l0.265,-0.076l0.273,-0.077l0.279,-0.079l0.287,-0.08l0.293,-0.082l0.301,-0.082l0.307,-0.084l0.314,-0.085l0.321,-0.087l0.327,-0.087l0.167,-0.044l0.168,-0.044l0.169,-0.045l0.172,-0.045l0.173,-0.045l0.175,-0.045l0.176,-0.046l0.179,-0.046l0.179,-0.046l0.182,-0.046l0.183,-0.046l0.185,-0.047l0.186,-0.047l0.189,-0.047l0.189,-0.047l0.192,-0.048l0.193,-0.048l0.195,-0.047l0.196,-0.048l0.198,-0.049l0.2,-0.048l0.201,-0.049l0.203,-0.048l0.205,-0.049l0.206,-0.049l0.208,-0.049l0.21,-0.05l0.211,-0.049l0.213,-0.05l0.214,-0.049l0.216,-0.05l0.217,-0.05l0.22,-0.05l0.221,-0.05l0.222,-0.051l0.224,-0.05l0.225,-0.05l0.228,-0.051l0.228,-0.051l0.231,-0.05l0.232,-0.051l0.233,-0.051l0.235,-0.051l0.237,-0.051l0.238,-0.051l0.24,-0.051l0.241,-0.051l0.243,-0.051l0.245,-0.051l0.246,-0.051l0.248,-0.052l0.249,-0.051l0.25,-0.051l0.253,-0.052l0.254,-0.051l0.255,-0.051l0.257,-0.051l0.258,-0.052l0.26,-0.051l0.262,-0.051l0.263,-0.052l0.264,-0.051l0.266,-0.051l0.268,-0.051l0.269,-0.051l0.271,-0.051l0.272,-0.051l0.274,-0.051l0.275,-0.051l0.276,-0.051l0.279,-0.051l0.279,-0.05l0.281,-0.051l0.283,-0.05l0.284,-0.051l0.286,-0.05l0.287,-0.05l0.288,-0.05l0.291,-0.05l0.291,-0.05l0.293,-0.05l0.295,-0.05l0.296,-0.049l0.297,-0.05l0.299,-0.049l0.3,-0.049l0.302,-0.049l0.303,-0.049l0.305,-0.048l0.306,-0.049l0.308,-0.048l0.309,-0.048l0.31,-0.048l0.312,-0.048l0.313,-0.048l0.315,-0.047l0.316,-0.048l0.318,-0.047l0.319,-0.046l0.32,-0.047l0.322,-0.046l0.323,-0.047l0.325,-0.045l0.326,-0.046l0.328,-0.046l0.329,-0.045l0.33,-0.045l0.332,-0.045l0.333,-0.044l0.334,-0.044l0.336,-0.044l0.337,-0.044l0.339,-0.044l0.34,-0.043l0.341,-0.043l0.343,-0.042l0.344,-0.043l0.346,-0.042l0.347,-0.041l0.348,-0.042l0.349,-0.041l0.351,-0.041l0.353,-0.04l0.353,-0.04l0.355,-0.04l0.357,-0.039l0.357,-0.039l0.359,-0.039l0.361,-0.039l0.361,-0.038l0.363,-0.037l0.365,-0.038l0.366,-0.037l0.366,-0.036l0.369,-0.037l0.37,-0.035l0.37,-0.036l0.373,-0.035l0.373,-0.035l0.375,-0.034l0.376,-0.034l0.378,-0.033l0.379,-0.033l0.38,-0.033l0.381,-0.032l0.383,-0.032l0.384,-0.031l0.385,-0.031l0.387,-0.03l0.387,-0.03l0.389,-0.03l0.391,-0.029l0.391,-0.029l0.393,-0.028l0.394,-0.027l0.396,-0.028l0.397,-0.026l0.397,-0.026l0.4,-0.026l0.4,-0.025l0.402,-0.025l0.403,-0.024l0.404,-0.024l0.405,-0.023l0.407,-0.023l0.408,-0.022l0.409,-0.021l0.41,-0.021l0.412,-0.021l0.412,-0.02l0.414,-0.019l0.416,-0.019l0.416,-0.018l0.418,-0.018l0.419,-0.017l0.42,-0.017l0.421,-0.016l0.422,-0.015l0.424,-0.015l0.425,-0.014l0.426,-0.014l0.427,-0.013l0.428,-0.012l0.43,-0.012l0.431,-0.011l0.432,-0.011l0.433,-0.01l0.434,-0.009l0.436,-0.009l0.436,-0.008l0.438,-0.007l0.439,-0.007l0.44,-0.006l0.441,-0.005l0.443,-0.005l0.443,-0.004l0.445,-0.003l1.954,-0.012l0,81.154Zm-3.25,-78.13l-0.437,0.005l-0.435,0.006l-0.435,0.007l-0.433,0.007l-0.432,0.008l-0.431,0.008l-0.43,0.01l-0.428,0.009l-0.428,0.011l-0.426,0.011l-0.425,0.012l-0.424,0.012l-0.423,0.013l-0.421,0.013l-0.42,0.014l-0.42,0.015l-0.418,0.015l-0.416,0.016l-0.416,0.016l-0.414,0.017l-0.414,0.018l-0.411,0.018l-0.411,0.019l-0.41,0.019l-0.408,0.019l-0.407,0.021l-0.406,0.021l-0.405,0.021l-0.404,0.022l-0.402,0.022l-0.401,0.023l-0.4,0.024l-0.398,0.023l-0.398,0.025l-0.396,0.025l-0.395,0.025l-0.393,0.026l-0.393,0.027l-0.391,0.026l-0.39,0.028l-0.388,0.028l-0.388,0.028l-0.386,0.029l-0.385,0.029l-0.383,0.03l-0.382,0.03l-0.381,0.03l-0.38,0.031l-0.379,0.032l-0.377,0.031l-0.376,0.033l-0.374,0.032l-0.374,0.033l-0.372,0.034l-0.371,0.034l-0.369,0.034l-0.368,0.035l-0.367,0.035l-0.366,0.035l-0.364,0.036l-0.363,0.036l-0.361,0.037l-0.361,0.037l-0.359,0.037l-0.357,0.038l-0.357,0.038l-0.355,0.038l-0.353,0.039l-0.353,0.039l-0.351,0.039l-0.349,0.04l-0.348,0.04l-0.347,0.04l-0.346,0.041l-0.344,0.041l-0.343,0.041l-0.342,0.041l-0.34,0.042l-0.339,0.042l-0.337,0.043l-0.336,0.042l-0.335,0.043l-0.333,0.043l-0.332,0.044l-0.331,0.044l-0.329,0.044l-0.328,0.044l-0.326,0.044l-0.326,0.045l-0.323,0.045l-0.322,0.045l-0.321,0.046l-0.32,0.045l-0.318,0.046l-0.316,0.046l-0.316,0.046l-0.314,0.047l-0.312,0.047l-0.311,0.046l-0.309,0.047l-0.309,0.048l-0.306,0.047l-0.306,0.048l-0.303,0.047l-0.303,0.048l-0.301,0.048l-0.299,0.049l-0.299,0.048l-0.296,0.048l-0.295,0.049l-0.294,0.049l-0.292,0.049l-0.291,0.049l-0.29,0.049l-0.288,0.049l-0.286,0.05l-0.285,0.049l-0.283,0.05l-0.282,0.049l-0.281,0.05l-0.279,0.05l-0.278,0.05l-0.276,0.05l-0.274,0.05l-0.273,0.05l-0.272,0.051l-0.27,0.05l-0.269,0.05l-0.267,0.051l-0.266,0.05l-0.264,0.05l-0.262,0.051l-0.261,0.05l-0.26,0.051l-0.258,0.051l-0.256,0.05l-0.255,0.051l-0.254,0.05l-0.252,0.051l-0.25,0.051l-0.249,0.05l-0.247,0.051l-0.246,0.05l-0.244,0.051l-0.243,0.05l-0.241,0.051l-0.24,0.05l-0.238,0.051l-0.236,0.05l-0.235,0.05l-0.233,0.051l-0.232,0.05l-0.23,0.05l-0.229,0.05l-0.227,0.05l-0.226,0.05l-0.223,0.05l-0.223,0.049l-0.22,0.05l-0.22,0.05l-0.217,0.049l-0.216,0.049l-0.214,0.049l-0.213,0.049l-0.211,0.049l-0.21,0.049l-0.208,0.049l-0.206,0.048l-0.205,0.049l-0.203,0.048l-0.201,0.048l-0.2,0.048l-0.198,0.048l-0.197,0.048l-0.195,0.047l-0.193,0.047l-0.191,0.047l-0.19,0.047l-0.189,0.047l-0.187,0.047l-0.185,0.046l-0.183,0.046l-0.182,0.046l-0.18,0.046l-0.178,0.045l-0.177,0.045l-0.175,0.045l-0.174,0.045l-0.171,0.045l-0.17,0.044l-0.169,0.044l-0.167,0.044l-0.165,0.043l-0.163,0.043l-0.322,0.086l-0.314,0.085l-0.309,0.083l-0.301,0.083l-0.294,0.081l-0.288,0.08l-0.28,0.078l-0.274,0.077l-0.267,0.076l-0.26,0.075l-0.252,0.073l-0.246,0.071l-0.239,0.07l-0.232,0.068l-0.224,0.067l-0.218,0.065l-0.21,0.064l-0.204,0.061l-0.196,0.06l-0.189,0.058l-0.182,0.057l-0.158,0.049l0,37.699l0,0.23l0.001,0.229l0.001,0.23l0.001,0.229l0.002,0.229l0.002,0.23l0.002,0.229l0.003,0.23l0.003,0.229l0.004,0.23l0.004,0.23l0.004,0.229l0.005,0.23l0.005,0.23l0.006,0.23l0.006,0.229l0.006,0.23l0.007,0.23l0.007,0.23l0.007,0.23l0.008,0.23l0.009,0.23l0.008,0.23l0.009,0.23l0.01,0.23l0.009,0.231l0.011,0.23l0.01,0.23l0.011,0.23l0.011,0.231l0.012,0.23l0.012,0.23l0.012,0.231l0.013,0.23l0.013,0.23l0.014,0.231l0.014,0.23l0.014,0.231l0.015,0.23l0.015,0.231l0.016,0.23l0.016,0.231l0.016,0.23l0.017,0.231l0.017,0.231l0.017,0.23l0.018,0.231l0.018,0.231l0.018,0.23l0.019,0.231l0.02,0.231l0.019,0.23l0.02,0.231l0.021,0.231l0.021,0.23l0.021,0.231l0.021,0.231l0.022,0.231l0.023,0.23l0.023,0.231l0.023,0.231l0.023,0.231l0.024,0.23l0.024,0.231l0.025,0.231l0.025,0.231l0.025,0.231l0.026,0.23l0.026,0.231l0.027,0.231l0.027,0.231l0.027,0.23l0.027,0.231l0.029,0.231l0.028,0.231l0.029,0.23l0.029,0.231l0.029,0.231l0.03,0.231l0.031,0.23l0.03,0.231l0.031,0.231l0.032,0.23l0.032,0.231l0.032,0.231l0.033,0.23l0.032,0.231l0.034,0.23l0.033,0.231l0.035,0.231l0.034,0.23l0.035,0.231l0.035,0.23l0.036,0.231l0.036,0.23l0.036,0.231l0.037,0.23l0.037,0.23l0.037,0.231l0.038,0.23l0.038,0.231l0.039,0.23l0.039,0.23l0.039,0.23l0.04,0.231l0.04,0.23l0.041,0.23l0.041,0.23l0.041,0.23l0.042,0.23l0.042,0.23l0.042,0.23l0.043,0.23l0.043,0.23l0.043,0.23l0.044,0.23l0.045,0.23l0.044,0.23l0.045,0.229l0.046,0.23l0.045,0.23l0.047,0.229l0.038,0.188l62.722,0l0,-75.133l-0.25,0.003Z" style="fill:#fff;"/></g><g><path d="M234.682,97.645l0,-78.063c37.869,0.183 63.311,7.239 68.599,8.839l0,39.519c0,9.86 -1.055,19.848 -3.137,29.705l-65.462,0Z" style="fill:#cf2b27;fill-rule:nonzero;"/><path d="M235.135,18.084l0.444,0.003l0.443,0.004l0.442,0.005l0.441,0.005l0.439,0.005l0.439,0.006l0.437,0.007l0.436,0.007l0.435,0.008l0.434,0.009l0.432,0.009l0.432,0.01l0.43,0.01l0.429,0.011l0.428,0.011l0.427,0.012l0.425,0.013l0.425,0.013l0.423,0.014l0.422,0.014l0.42,0.014l0.42,0.016l0.418,0.016l0.417,0.016l0.416,0.017l0.415,0.017l0.414,0.018l0.412,0.018l0.411,0.019l0.41,0.02l0.408,0.019l0.408,0.021l0.406,0.021l0.405,0.021l0.403,0.022l0.403,0.022l0.401,0.023l0.4,0.023l0.398,0.024l0.398,0.024l0.396,0.024l0.395,0.025l0.394,0.026l0.392,0.026l0.391,0.026l0.39,0.027l0.389,0.027l0.387,0.028l0.386,0.028l0.385,0.028l0.383,0.029l0.382,0.029l0.381,0.03l0.38,0.03l0.378,0.031l0.377,0.03l0.376,0.032l0.374,0.031l0.373,0.032l0.372,0.032l0.371,0.033l0.369,0.033l0.368,0.033l0.366,0.034l0.365,0.034l0.364,0.035l0.363,0.034l0.361,0.035l0.36,0.036l0.358,0.036l0.358,0.036l0.356,0.036l0.354,0.037l0.353,0.037l0.352,0.037l0.351,0.038l0.349,0.037l0.348,0.039l0.346,0.038l0.345,0.039l0.344,0.039l0.342,0.039l0.341,0.04l0.34,0.039l0.338,0.04l0.337,0.041l0.335,0.04l0.334,0.041l0.333,0.041l0.331,0.041l0.33,0.042l0.329,0.041l0.327,0.042l0.325,0.043l0.325,0.042l0.323,0.042l0.321,0.043l0.32,0.043l0.319,0.043l0.317,0.044l0.316,0.043l0.314,0.044l0.313,0.044l0.312,0.044l0.31,0.044l0.309,0.045l0.307,0.044l0.306,0.045l0.304,0.045l0.303,0.045l0.301,0.045l0.3,0.045l0.299,0.046l0.297,0.045l0.296,0.046l0.294,0.046l0.293,0.046l0.291,0.046l0.29,0.046l0.288,0.046l0.287,0.046l0.285,0.047l0.284,0.046l0.282,0.047l0.281,0.046l0.28,0.047l0.277,0.047l0.277,0.047l0.275,0.047l0.273,0.047l0.272,0.047l0.271,0.047l0.268,0.047l0.268,0.047l0.266,0.048l0.264,0.047l0.263,0.047l0.261,0.047l0.26,0.048l0.258,0.047l0.257,0.047l0.255,0.048l0.254,0.047l0.252,0.047l0.251,0.048l0.249,0.047l0.247,0.047l0.246,0.048l0.244,0.047l0.243,0.047l0.241,0.047l0.24,0.047l0.238,0.047l0.237,0.047l0.235,0.047l0.233,0.047l0.232,0.047l0.23,0.047l0.229,0.047l0.227,0.047l0.226,0.046l0.224,0.047l0.222,0.046l0.221,0.046l0.219,0.047l0.218,0.046l0.216,0.046l0.214,0.046l0.213,0.045l0.211,0.046l0.209,0.046l0.208,0.045l0.207,0.045l0.204,0.045l0.203,0.045l0.202,0.045l0.199,0.045l0.199,0.045l0.196,0.044l0.195,0.044l0.193,0.044l0.192,0.044l0.19,0.044l0.188,0.043l0.187,0.044l0.185,0.043l0.183,0.043l0.182,0.043l0.18,0.042l0.355,0.085l0.348,0.083l0.342,0.083l0.334,0.082l0.329,0.081l0.321,0.079l0.315,0.079l0.307,0.078l0.301,0.076l0.294,0.076l0.287,0.074l0.281,0.073l0.273,0.072l0.266,0.07l0.26,0.069l0.252,0.068l0.246,0.067l0.238,0.065l0.231,0.063l0.224,0.062l0.217,0.061l0.21,0.058l0.203,0.058l0.196,0.055l0.188,0.054l0.182,0.053l0.174,0.05l0.166,0.049l0.16,0.047l0.152,0.045l0.145,0.043l0.137,0.041l1.196,0.361l0,40.633l0,0.233l-0.001,0.234l-0.001,0.234l-0.001,0.234l-0.002,0.233l-0.002,0.234l-0.002,0.234l-0.003,0.234l-0.004,0.234l-0.003,0.234l-0.004,0.234l-0.005,0.234l-0.005,0.234l-0.005,0.235l-0.006,0.234l-0.006,0.234l-0.006,0.234l-0.007,0.234l-0.007,0.235l-0.008,0.234l-0.008,0.235l-0.008,0.234l-0.009,0.234l-0.009,0.235l-0.01,0.234l-0.01,0.235l-0.01,0.234l-0.011,0.235l-0.011,0.235l-0.011,0.234l-0.012,0.235l-0.012,0.234l-0.013,0.235l-0.013,0.235l-0.013,0.234l-0.014,0.235l-0.014,0.235l-0.015,0.235l-0.015,0.235l-0.015,0.234l-0.016,0.235l-0.016,0.235l-0.017,0.235l-0.017,0.235l-0.017,0.235l-0.018,0.235l-0.018,0.234l-0.018,0.235l-0.019,0.235l-0.019,0.235l-0.02,0.235l-0.02,0.235l-0.02,0.235l-0.021,0.235l-0.021,0.235l-0.022,0.235l-0.022,0.235l-0.022,0.235l-0.023,0.235l-0.023,0.235l-0.023,0.235l-0.024,0.235l-0.024,0.235l-0.025,0.235l-0.025,0.235l-0.025,0.235l-0.026,0.235l-0.026,0.235l-0.027,0.235l-0.027,0.235l-0.027,0.235l-0.028,0.235l-0.028,0.235l-0.028,0.235l-0.029,0.235l-0.029,0.235l-0.03,0.235l-0.03,0.234l-0.03,0.235l-0.031,0.235l-0.031,0.235l-0.032,0.235l-0.032,0.235l-0.032,0.235l-0.033,0.234l-0.033,0.235l-0.033,0.235l-0.034,0.235l-0.034,0.234l-0.035,0.235l-0.035,0.235l-0.036,0.235l-0.035,0.234l-0.036,0.235l-0.037,0.234l-0.037,0.235l-0.037,0.234l-0.038,0.235l-0.038,0.234l-0.038,0.235l-0.039,0.234l-0.039,0.235l-0.04,0.234l-0.04,0.235l-0.04,0.234l-0.041,0.234l-0.041,0.234l-0.041,0.235l-0.042,0.234l-0.043,0.234l-0.042,0.234l-0.043,0.234l-0.044,0.234l-0.043,0.234l-0.045,0.234l-0.044,0.234l-0.045,0.234l-0.045,0.234l-0.046,0.234l-0.046,0.233l-0.046,0.234l-0.047,0.234l-0.048,0.234l-0.047,0.233l-0.048,0.234l-0.048,0.233l-0.049,0.234l-0.3,1.423l-68.179,0l0,-81.071l1.953,0.01Zm1.047,3.009l0,75.052l62.741,0l0.037,-0.183l0.045,-0.229l0.046,-0.229l0.045,-0.229l0.045,-0.229l0.044,-0.229l0.044,-0.229l0.044,-0.23l0.043,-0.229l0.043,-0.229l0.043,-0.229l0.042,-0.23l0.042,-0.229l0.041,-0.23l0.041,-0.229l0.041,-0.229l0.04,-0.23l0.04,-0.23l0.039,-0.229l0.039,-0.23l0.039,-0.229l0.039,-0.23l0.038,-0.23l0.037,-0.229l0.038,-0.23l0.036,-0.23l0.037,-0.23l0.036,-0.23l0.036,-0.229l0.035,-0.23l0.035,-0.23l0.035,-0.23l0.034,-0.23l0.034,-0.23l0.034,-0.23l0.033,-0.23l0.033,-0.23l0.032,-0.23l0.032,-0.23l0.032,-0.23l0.031,-0.23l0.031,-0.23l0.03,-0.23l0.031,-0.23l0.029,-0.23l0.03,-0.23l0.029,-0.23l0.028,-0.23l0.029,-0.23l0.028,-0.231l0.027,-0.23l0.027,-0.23l0.027,-0.23l0.026,-0.23l0.026,-0.23l0.026,-0.231l0.025,-0.23l0.025,-0.23l0.025,-0.23l0.024,-0.23l0.024,-0.23l0.023,-0.23l0.023,-0.231l0.022,-0.23l0.023,-0.23l0.022,-0.23l0.021,-0.23l0.021,-0.23l0.021,-0.23l0.02,-0.231l0.02,-0.23l0.02,-0.23l0.019,-0.23l0.019,-0.23l0.018,-0.23l0.018,-0.23l0.018,-0.23l0.017,-0.23l0.017,-0.23l0.017,-0.23l0.016,-0.23l0.016,-0.23l0.015,-0.23l0.015,-0.23l0.015,-0.23l0.014,-0.23l0.014,-0.229l0.014,-0.23l0.013,-0.23l0.012,-0.23l0.013,-0.23l0.012,-0.229l0.011,-0.23l0.012,-0.23l0.011,-0.23l0.01,-0.229l0.01,-0.23l0.01,-0.229l0.009,-0.23l0.009,-0.229l0.009,-0.23l0.008,-0.229l0.008,-0.23l0.007,-0.229l0.007,-0.229l0.007,-0.23l0.006,-0.229l0.006,-0.229l0.006,-0.23l0.005,-0.229l0.005,-0.229l0.004,-0.229l0.004,-0.229l0.004,-0.229l0.003,-0.229l0.003,-0.229l0.002,-0.229l0.002,-0.229l0.002,-0.228l0.001,-0.229l0.001,-0.229l0.001,-0.228l0,-0.23l0,-38.397l-0.14,-0.04l-0.183,-0.053l-0.191,-0.054l-0.197,-0.056l-0.205,-0.057l-0.212,-0.059l-0.219,-0.061l-0.226,-0.062l-0.233,-0.063l-0.24,-0.065l-0.247,-0.066l-0.254,-0.068l-0.261,-0.069l-0.267,-0.071l-0.275,-0.071l-0.282,-0.073l-0.288,-0.074l-0.296,-0.075l-0.302,-0.076l-0.309,-0.078l-0.316,-0.078l-0.322,-0.08l-0.329,-0.08l-0.336,-0.081l-0.343,-0.083l-0.349,-0.083l-0.177,-0.042l-0.179,-0.042l-0.18,-0.042l-0.182,-0.042l-0.184,-0.043l-0.186,-0.043l-0.187,-0.043l-0.188,-0.043l-0.191,-0.044l-0.191,-0.043l-0.194,-0.044l-0.195,-0.044l-0.197,-0.044l-0.198,-0.044l-0.201,-0.044l-0.201,-0.045l-0.203,-0.044l-0.205,-0.045l-0.207,-0.045l-0.208,-0.045l-0.21,-0.045l-0.211,-0.046l-0.213,-0.045l-0.215,-0.045l-0.216,-0.046l-0.217,-0.046l-0.22,-0.045l-0.22,-0.046l-0.223,-0.046l-0.224,-0.046l-0.226,-0.046l-0.227,-0.047l-0.229,-0.046l-0.23,-0.046l-0.232,-0.046l-0.233,-0.047l-0.235,-0.046l-0.237,-0.047l-0.238,-0.046l-0.24,-0.047l-0.241,-0.047l-0.243,-0.046l-0.244,-0.047l-0.246,-0.047l-0.247,-0.046l-0.249,-0.047l-0.251,-0.047l-0.252,-0.047l-0.253,-0.046l-0.255,-0.047l-0.257,-0.047l-0.258,-0.047l-0.259,-0.046l-0.261,-0.047l-0.263,-0.047l-0.264,-0.046l-0.266,-0.047l-0.267,-0.046l-0.269,-0.047l-0.27,-0.046l-0.271,-0.047l-0.274,-0.046l-0.274,-0.046l-0.276,-0.046l-0.278,-0.047l-0.279,-0.046l-0.28,-0.046l-0.282,-0.045l-0.284,-0.046l-0.285,-0.046l-0.286,-0.045l-0.288,-0.046l-0.289,-0.045l-0.291,-0.046l-0.292,-0.045l-0.294,-0.045l-0.295,-0.045l-0.297,-0.044l-0.298,-0.045l-0.299,-0.045l-0.301,-0.044l-0.303,-0.044l-0.303,-0.044l-0.305,-0.044l-0.307,-0.044l-0.308,-0.043l-0.31,-0.044l-0.311,-0.043l-0.312,-0.043l-0.314,-0.043l-0.315,-0.043l-0.316,-0.042l-0.318,-0.042l-0.32,-0.043l-0.32,-0.041l-0.322,-0.042l-0.324,-0.042l-0.325,-0.041l-0.326,-0.041l-0.328,-0.041l-0.329,-0.04l-0.331,-0.041l-0.331,-0.04l-0.334,-0.04l-0.334,-0.039l-0.336,-0.04l-0.337,-0.039l-0.339,-0.039l-0.34,-0.038l-0.342,-0.038l-0.342,-0.039l-0.344,-0.037l-0.346,-0.038l-0.347,-0.037l-0.348,-0.037l-0.349,-0.036l-0.351,-0.037l-0.352,-0.036l-0.354,-0.035l-0.355,-0.036l-0.356,-0.035l-0.357,-0.034l-0.359,-0.035l-0.36,-0.034l-0.362,-0.034l-0.362,-0.033l-0.365,-0.033l-0.365,-0.033l-0.367,-0.032l-0.368,-0.032l-0.369,-0.032l-0.37,-0.031l-0.372,-0.031l-0.373,-0.03l-0.375,-0.03l-0.376,-0.03l-0.377,-0.03l-0.378,-0.028l-0.38,-0.029l-0.38,-0.028l-0.382,-0.028l-0.384,-0.027l-0.385,-0.027l-0.385,-0.027l-0.388,-0.026l-0.388,-0.025l-0.39,-0.026l-0.391,-0.024l-0.392,-0.025l-0.393,-0.024l-0.395,-0.023l-0.396,-0.023l-0.397,-0.023l-0.399,-0.022l-0.399,-0.021l-0.401,-0.021l-0.402,-0.021l-0.404,-0.02l-0.404,-0.02l-0.406,-0.019l-0.407,-0.019l-0.408,-0.018l-0.409,-0.018l-0.411,-0.017l-0.412,-0.017l-0.413,-0.016l-0.414,-0.015l-0.416,-0.015l-0.416,-0.015l-0.418,-0.014l-0.419,-0.014l-0.42,-0.013l-0.422,-0.012l-0.422,-0.012l-0.424,-0.011l-0.425,-0.011l-0.426,-0.01l-0.427,-0.01l-0.428,-0.009l-0.43,-0.008l-0.431,-0.008l-0.432,-0.007l-0.433,-0.007l-0.434,-0.006l-0.435,-0.006l-0.437,-0.005l-0.25,-0.002Z" style="fill:#fff;"/></g><g><path d="M231.682,191.07c-31.875,-18.791 -55.907,-52.309 -64.795,-90.426l64.795,0l0,90.426Z" style="fill:#cf2b27;fill-rule:nonzero;"/><path d="M233.182,193.698l-2.451,-1.448l-0.188,-0.112l-0.189,-0.112l-0.188,-0.113l-0.189,-0.113l-0.188,-0.113l-0.187,-0.114l-0.188,-0.114l-0.188,-0.114l-0.187,-0.115l-0.187,-0.114l-0.187,-0.116l-0.187,-0.115l-0.186,-0.117l-0.186,-0.116l-0.187,-0.116l-0.186,-0.117l-0.185,-0.118l-0.186,-0.117l-0.185,-0.118l-0.186,-0.119l-0.185,-0.118l-0.184,-0.119l-0.185,-0.12l-0.184,-0.119l-0.185,-0.12l-0.184,-0.121l-0.184,-0.12l-0.183,-0.121l-0.184,-0.121l-0.183,-0.122l-0.183,-0.122l-0.183,-0.122l-0.183,-0.123l-0.182,-0.123l-0.183,-0.123l-0.182,-0.123l-0.182,-0.124l-0.182,-0.125l-0.181,-0.124l-0.181,-0.125l-0.182,-0.125l-0.18,-0.125l-0.181,-0.126l-0.181,-0.126l-0.18,-0.127l-0.18,-0.127l-0.18,-0.127l-0.18,-0.127l-0.18,-0.128l-0.179,-0.128l-0.179,-0.128l-0.179,-0.129l-0.179,-0.129l-0.178,-0.129l-0.179,-0.13l-0.178,-0.13l-0.178,-0.13l-0.178,-0.13l-0.177,-0.131l-0.177,-0.131l-0.177,-0.132l-0.177,-0.132l-0.177,-0.132l-0.177,-0.132l-0.176,-0.133l-0.176,-0.133l-0.176,-0.133l-0.176,-0.134l-0.175,-0.134l-0.176,-0.134l-0.175,-0.135l-0.175,-0.135l-0.174,-0.135l-0.175,-0.135l-0.174,-0.136l-0.174,-0.136l-0.174,-0.137l-0.173,-0.136l-0.174,-0.137l-0.173,-0.138l-0.173,-0.137l-0.173,-0.138l-0.172,-0.138l-0.173,-0.139l-0.172,-0.139l-0.172,-0.139l-0.172,-0.139l-0.171,-0.14l-0.172,-0.14l-0.171,-0.14l-0.171,-0.141l-0.17,-0.141l-0.171,-0.141l-0.17,-0.142l-0.17,-0.142l-0.17,-0.142l-0.169,-0.142l-0.17,-0.143l-0.169,-0.143l-0.169,-0.143l-0.169,-0.144l-0.168,-0.143l-0.168,-0.145l-0.169,-0.144l-0.167,-0.145l-0.168,-0.145l-0.168,-0.145l-0.167,-0.146l-0.167,-0.146l-0.167,-0.146l-0.166,-0.146l-0.166,-0.147l-0.167,-0.147l-0.165,-0.148l-0.166,-0.147l-0.166,-0.148l-0.165,-0.148l-0.165,-0.149l-0.165,-0.149l-0.164,-0.149l-0.165,-0.149l-0.164,-0.15l-0.164,-0.15l-0.163,-0.15l-0.164,-0.15l-0.163,-0.151l-0.163,-0.151l-0.163,-0.152l-0.162,-0.151l-0.163,-0.152l-0.162,-0.152l-0.162,-0.153l-0.161,-0.152l-0.162,-0.153l-0.161,-0.154l-0.161,-0.153l-0.161,-0.154l-0.16,-0.154l-0.16,-0.155l-0.16,-0.154l-0.16,-0.155l-0.16,-0.155l-0.159,-0.156l-0.159,-0.156l-0.159,-0.156l-0.159,-0.156l-0.158,-0.157l-0.159,-0.156l-0.158,-0.158l-0.157,-0.157l-0.158,-0.158l-0.157,-0.158l-0.157,-0.158l-0.157,-0.158l-0.157,-0.159l-0.156,-0.159l-0.156,-0.159l-0.156,-0.16l-0.156,-0.16l-0.155,-0.16l-0.155,-0.16l-0.155,-0.161l-0.155,-0.161l-0.154,-0.161l-0.154,-0.161l-0.154,-0.162l-0.154,-0.162l-0.154,-0.162l-0.153,-0.162l-0.153,-0.163l-0.153,-0.163l-0.152,-0.163l-0.153,-0.164l-0.152,-0.164l-0.152,-0.164l-0.151,-0.164l-0.152,-0.164l-0.151,-0.165l-0.151,-0.165l-0.15,-0.166l-0.151,-0.165l-0.15,-0.166l-0.15,-0.166l-0.149,-0.166l-0.15,-0.167l-0.149,-0.167l-0.149,-0.167l-0.149,-0.167l-0.148,-0.168l-0.148,-0.168l-0.148,-0.168l-0.148,-0.168l-0.147,-0.169l-0.148,-0.169l-0.147,-0.169l-0.146,-0.169l-0.147,-0.17l-0.146,-0.17l-0.146,-0.17l-0.146,-0.17l-0.145,-0.171l-0.146,-0.171l-0.144,-0.171l-0.145,-0.171l-0.145,-0.172l-0.144,-0.172l-0.144,-0.172l-0.144,-0.172l-0.143,-0.173l-0.143,-0.172l-0.143,-0.174l-0.143,-0.173l-0.143,-0.173l-0.142,-0.174l-0.142,-0.174l-0.142,-0.174l-0.141,-0.175l-0.141,-0.175l-0.141,-0.175l-0.141,-0.175l-0.14,-0.175l-0.141,-0.176l-0.14,-0.176l-0.139,-0.176l-0.14,-0.177l-0.139,-0.176l-0.139,-0.177l-0.138,-0.177l-0.139,-0.178l-0.138,-0.177l-0.138,-0.178l-0.137,-0.178l-0.138,-0.179l-0.137,-0.178l-0.137,-0.179l-0.136,-0.179l-0.137,-0.179l-0.136,-0.18l-0.136,-0.179l-0.135,-0.18l-0.135,-0.18l-0.135,-0.181l-0.135,-0.18l-0.135,-0.181l-0.134,-0.181l-0.134,-0.181l-0.134,-0.182l-0.133,-0.182l-0.133,-0.182l-0.133,-0.182l-0.133,-0.182l-0.132,-0.183l-0.132,-0.183l-0.132,-0.183l-0.132,-0.183l-0.131,-0.184l-0.131,-0.184l-0.131,-0.184l-0.13,-0.184l-0.131,-0.184l-0.13,-0.185l-0.129,-0.185l-0.13,-0.185l-0.129,-0.185l-0.129,-0.186l-0.129,-0.185l-0.128,-0.186l-0.128,-0.186l-0.128,-0.187l-0.128,-0.187l-0.127,-0.186l-0.127,-0.187l-0.127,-0.188l-0.126,-0.187l-0.126,-0.188l-0.126,-0.188l-0.126,-0.188l-0.125,-0.188l-0.125,-0.189l-0.125,-0.188l-0.125,-0.189l-0.124,-0.19l-0.124,-0.189l-0.124,-0.189l-0.123,-0.19l-0.123,-0.19l-0.123,-0.191l-0.123,-0.19l-0.122,-0.191l-0.122,-0.191l-0.122,-0.191l-0.122,-0.191l-0.121,-0.191l-0.121,-0.192l-0.121,-0.192l-0.12,-0.192l-0.12,-0.192l-0.12,-0.193l-0.12,-0.192l-0.119,-0.193l-0.119,-0.193l-0.119,-0.194l-0.118,-0.193l-0.118,-0.194l-0.118,-0.194l-0.118,-0.194l-0.117,-0.194l-0.117,-0.195l-0.117,-0.194l-0.116,-0.195l-0.116,-0.195l-0.116,-0.196l-0.116,-0.195l-0.115,-0.196l-0.115,-0.196l-0.115,-0.196l-0.115,-0.196l-0.114,-0.197l-0.114,-0.196l-0.113,-0.197l-0.114,-0.197l-0.113,-0.197l-0.112,-0.198l-0.113,-0.197l-0.112,-0.198l-0.112,-0.198l-0.111,-0.198l-0.112,-0.199l-0.111,-0.198l-0.111,-0.199l-0.11,-0.199l-0.11,-0.199l-0.11,-0.2l-0.109,-0.199l-0.11,-0.2l-0.109,-0.2l-0.108,-0.2l-0.109,-0.2l-0.108,-0.201l-0.108,-0.2l-0.107,-0.201l-0.107,-0.201l-0.107,-0.201l-0.107,-0.202l-0.106,-0.201l-0.106,-0.202l-0.106,-0.202l-0.106,-0.202l-0.105,-0.202l-0.104,-0.203l-0.105,-0.202l-0.104,-0.203l-0.104,-0.203l-0.104,-0.203l-0.103,-0.204l-0.103,-0.203l-0.103,-0.204l-0.103,-0.204l-0.102,-0.204l-0.102,-0.204l-0.101,-0.204l-0.101,-0.205l-0.101,-0.205l-0.101,-0.205l-0.1,-0.205l-0.1,-0.205l-0.1,-0.206l-0.1,-0.205l-0.099,-0.206l-0.099,-0.206l-0.098,-0.206l-0.098,-0.207l-0.098,-0.206l-0.098,-0.207l-0.097,-0.206l-0.097,-0.207l-0.097,-0.208l-0.096,-0.207l-0.097,-0.207l-0.095,-0.208l-0.096,-0.208l-0.095,-0.208l-0.095,-0.208l-0.094,-0.208l-0.095,-0.209l-0.094,-0.209l-0.093,-0.208l-0.094,-0.209l-0.093,-0.209l-0.092,-0.21l-0.093,-0.209l-0.092,-0.21l-0.092,-0.21l-0.091,-0.21l-0.091,-0.21l-0.091,-0.21l-0.091,-0.21l-0.09,-0.211l-0.09,-0.211l-0.089,-0.211l-0.09,-0.211l-0.089,-0.211l-0.088,-0.211l-0.089,-0.212l-0.088,-0.211l-0.087,-0.212l-0.088,-0.212l-0.087,-0.212l-0.087,-0.213l-0.086,-0.212l-0.086,-0.213l-0.086,-0.212l-0.085,-0.213l-0.086,-0.213l-0.084,-0.214l-0.085,-0.213l-0.084,-0.214l-0.084,-0.213l-0.084,-0.214l-0.083,-0.214l-0.083,-0.214l-0.082,-0.214l-0.083,-0.215l-0.082,-0.214l-0.081,-0.215l-0.082,-0.215l-0.081,-0.215l-0.08,-0.215l-0.081,-0.215l-0.08,-0.216l-0.08,-0.215l-0.079,-0.216l-0.079,-0.216l-0.079,-0.216l-0.078,-0.216l-0.078,-0.216l-0.078,-0.217l-0.078,-0.216l-0.077,-0.217l-0.076,-0.217l-0.077,-0.217l-0.076,-0.217l-0.076,-0.217l-0.075,-0.217l-0.076,-0.218l-0.074,-0.218l-0.075,-0.217l-0.074,-0.218l-0.074,-0.218l-0.073,-0.219l-0.074,-0.218l-0.073,-0.218l-0.072,-0.219l-0.072,-0.219l-0.072,-0.219l-0.072,-0.219l-0.071,-0.219l-0.071,-0.219l-0.07,-0.219l-0.07,-0.22l-0.07,-0.22l-0.07,-0.219l-0.069,-0.22l-0.069,-0.22l-0.068,-0.221l-0.069,-0.22l-0.067,-0.22l-0.068,-0.221l-0.067,-0.221l-0.067,-0.22l-0.067,-0.221l-0.066,-0.221l-0.066,-0.222l-0.065,-0.221l-0.065,-0.221l-0.065,-0.222l-0.065,-0.222l-0.064,-0.221l-0.064,-0.222l-0.063,-0.222l-0.063,-0.223l-0.063,-0.222l-0.062,-0.222l-0.063,-0.223l-0.061,-0.222l-0.062,-0.223l-0.061,-0.223l-0.061,-0.223l-0.06,-0.223l-0.06,-0.223l-0.06,-0.224l-0.059,-0.223l-0.059,-0.224l-0.059,-0.223l-0.058,-0.224l-0.058,-0.224l-0.058,-0.224l-0.057,-0.224l-0.057,-0.225l-0.057,-0.224l-0.056,-0.225l-0.056,-0.224l-0.056,-0.225l-0.055,-0.225l-0.055,-0.225l-0.054,-0.225l-0.054,-0.225l-0.054,-0.225l-0.054,-0.226l-0.053,-0.225l-0.484,-2.066l68.187,0l0,94.554Zm-64.302,-91.19l0.056,0.22l0.055,0.22l0.056,0.22l0.056,0.219l0.056,0.22l0.057,0.219l0.057,0.219l0.058,0.22l0.058,0.219l0.058,0.219l0.058,0.218l0.059,0.219l0.06,0.219l0.059,0.218l0.06,0.219l0.06,0.218l0.061,0.218l0.06,0.218l0.062,0.218l0.061,0.218l0.062,0.217l0.062,0.218l0.063,0.217l0.063,0.218l0.063,0.217l0.063,0.217l0.064,0.217l0.064,0.217l0.065,0.216l0.065,0.217l0.065,0.216l0.065,0.217l0.066,0.216l0.066,0.216l0.067,0.216l0.067,0.216l0.067,0.216l0.067,0.215l0.068,0.216l0.068,0.215l0.069,0.215l0.069,0.216l0.069,0.215l0.069,0.214l0.07,0.215l0.07,0.215l0.07,0.214l0.071,0.215l0.071,0.214l0.072,0.214l0.071,0.214l0.072,0.214l0.073,0.213l0.072,0.214l0.073,0.213l0.074,0.214l0.073,0.213l0.074,0.213l0.075,0.213l0.074,0.212l0.075,0.213l0.075,0.212l0.076,0.213l0.076,0.212l0.076,0.212l0.077,0.212l0.076,0.212l0.078,0.211l0.077,0.212l0.078,0.211l0.078,0.212l0.078,0.211l0.079,0.211l0.079,0.211l0.08,0.21l0.079,0.211l0.08,0.21l0.081,0.21l0.08,0.21l0.081,0.21l0.082,0.21l0.081,0.21l0.082,0.209l0.082,0.21l0.083,0.209l0.083,0.209l0.083,0.209l0.083,0.209l0.084,0.208l0.084,0.209l0.085,0.208l0.084,0.209l0.085,0.208l0.086,0.207l0.085,0.208l0.086,0.208l0.087,0.207l0.086,0.208l0.087,0.207l0.087,0.207l0.088,0.207l0.088,0.206l0.088,0.207l0.088,0.206l0.089,0.206l0.089,0.206l0.089,0.206l0.09,0.206l0.09,0.206l0.09,0.205l0.091,0.205l0.09,0.205l0.092,0.205l0.091,0.205l0.092,0.205l0.092,0.204l0.092,0.205l0.093,0.204l0.093,0.204l0.093,0.204l0.094,0.203l0.094,0.204l0.094,0.203l0.094,0.203l0.095,0.203l0.095,0.203l0.096,0.203l0.095,0.202l0.096,0.203l0.096,0.202l0.097,0.202l0.097,0.202l0.097,0.202l0.098,0.201l0.097,0.201l0.098,0.202l0.099,0.201l0.098,0.201l0.099,0.2l0.1,0.201l0.099,0.2l0.1,0.2l0.1,0.2l0.1,0.2l0.101,0.2l0.101,0.199l0.101,0.199l0.102,0.199l0.102,0.199l0.102,0.199l0.103,0.199l0.102,0.198l0.103,0.198l0.104,0.198l0.103,0.198l0.104,0.198l0.104,0.198l0.105,0.197l0.105,0.197l0.105,0.197l0.105,0.197l0.106,0.196l0.106,0.197l0.106,0.196l0.106,0.196l0.107,0.196l0.107,0.196l0.108,0.195l0.107,0.196l0.108,0.195l0.108,0.195l0.109,0.195l0.109,0.194l0.109,0.195l0.109,0.194l0.11,0.194l0.11,0.194l0.11,0.193l0.11,0.194l0.111,0.193l0.111,0.193l0.112,0.193l0.111,0.193l0.112,0.193l0.112,0.192l0.113,0.192l0.112,0.192l0.113,0.192l0.114,0.191l0.113,0.192l0.114,0.191l0.114,0.191l0.115,0.191l0.114,0.19l0.115,0.191l0.116,0.19l0.115,0.19l0.116,0.19l0.116,0.189l0.116,0.19l0.117,0.189l0.117,0.189l0.117,0.189l0.117,0.188l0.118,0.189l0.118,0.188l0.118,0.188l0.119,0.188l0.119,0.187l0.119,0.188l0.119,0.187l0.12,0.187l0.12,0.187l0.12,0.186l0.12,0.187l0.121,0.186l0.121,0.186l0.121,0.186l0.122,0.185l0.121,0.185l0.122,0.186l0.123,0.184l0.122,0.185l0.123,0.185l0.123,0.184l0.124,0.184l0.123,0.184l0.124,0.184l0.124,0.183l0.125,0.183l0.124,0.183l0.125,0.183l0.126,0.183l0.125,0.182l0.126,0.182l0.126,0.182l0.126,0.182l0.127,0.182l0.127,0.181l0.127,0.181l0.127,0.181l0.128,0.181l0.128,0.18l0.128,0.18l0.128,0.18l0.129,0.18l0.129,0.18l0.129,0.179l0.129,0.179l0.13,0.179l0.13,0.179l0.13,0.178l0.13,0.179l0.131,0.178l0.131,0.177l0.131,0.178l0.132,0.177l0.132,0.178l0.132,0.176l0.132,0.177l0.132,0.177l0.133,0.176l0.133,0.176l0.133,0.176l0.134,0.175l0.134,0.175l0.134,0.175l0.134,0.175l0.135,0.175l0.134,0.174l0.135,0.175l0.136,0.174l0.135,0.173l0.136,0.174l0.136,0.173l0.136,0.173l0.137,0.173l0.137,0.172l0.137,0.173l0.137,0.172l0.138,0.172l0.138,0.171l0.138,0.172l0.138,0.171l0.138,0.171l0.139,0.17l0.139,0.171l0.14,0.17l0.139,0.17l0.14,0.17l0.14,0.169l0.14,0.169l0.141,0.169l0.14,0.169l0.141,0.168l0.142,0.169l0.141,0.168l0.142,0.167l0.142,0.168l0.142,0.167l0.142,0.167l0.143,0.167l0.143,0.167l0.143,0.166l0.144,0.166l0.143,0.166l0.144,0.166l0.144,0.165l0.145,0.165l0.144,0.165l0.145,0.164l0.145,0.165l0.146,0.164l0.145,0.164l0.146,0.163l0.146,0.164l0.146,0.163l0.147,0.163l0.147,0.162l0.147,0.162l0.147,0.163l0.147,0.161l0.148,0.162l0.148,0.161l0.148,0.161l0.148,0.161l0.149,0.161l0.149,0.16l0.149,0.16l0.149,0.16l0.15,0.159l0.15,0.16l0.15,0.159l0.15,0.158l0.15,0.159l0.151,0.158l0.151,0.158l0.151,0.158l0.152,0.157l0.151,0.157l0.152,0.157l0.152,0.157l0.153,0.156l0.152,0.157l0.153,0.155l0.153,0.156l0.153,0.155l0.154,0.155l0.153,0.155l0.154,0.155l0.154,0.154l0.155,0.154l0.154,0.154l0.155,0.153l0.155,0.153l0.155,0.153l0.156,0.153l0.156,0.153l0.155,0.152l0.157,0.152l0.156,0.151l0.157,0.151l0.156,0.151l0.157,0.151l0.158,0.151l0.157,0.15l0.158,0.15l0.158,0.15l0.158,0.149l0.158,0.149l0.159,0.149l0.159,0.149l0.159,0.148l0.159,0.148l0.159,0.148l0.16,0.147l0.16,0.147l0.16,0.147l0.16,0.147l0.161,0.146l0.161,0.146l0.161,0.146l0.161,0.146l0.161,0.145l0.162,0.145l0.162,0.145l0.162,0.144l0.162,0.144l0.162,0.144l0.163,0.143l0.163,0.144l0.163,0.143l0.163,0.142l0.164,0.143l0.164,0.142l0.163,0.142l0.165,0.141l0.164,0.141l0.165,0.141l0.164,0.141l0.165,0.141l0.166,0.14l0.165,0.139l0.166,0.14l0.165,0.139l0.166,0.139l0.167,0.139l0.166,0.138l0.167,0.138l0.167,0.138l0.167,0.137l0.167,0.138l0.167,0.137l0.168,0.136l0.168,0.136l0.168,0.136l0.168,0.136l0.169,0.136l0.169,0.135l0.168,0.135l0.17,0.134l0.169,0.134l0.169,0.134l0.17,0.134l0.17,0.133l0.17,0.133l0.17,0.133l0.171,0.132l0.171,0.132l0.171,0.132l0.171,0.132l0.171,0.131l0.171,0.131l0.172,0.13l0.172,0.131l0.172,0.13l0.172,0.129l0.173,0.13l0.173,0.129l0.172,0.129l0.174,0.128l0.173,0.128l0.173,0.128l0.174,0.128l0.174,0.127l0.174,0.127l0.174,0.127l0.175,0.126l0.174,0.126l0.175,0.126l0.175,0.125l0.175,0.125l0.176,0.125l0.175,0.124l0.176,0.124l0.176,0.124l0.176,0.124l0.177,0.123l0.176,0.123l0.177,0.122l0.177,0.123l0.177,0.121l0.177,0.122l0.178,0.121l0.177,0.121l0.178,0.121l0.178,0.12l0.179,0.12l0.178,0.12l0.179,0.119l0.178,0.12l0.18,0.118l0.179,0.119l0.179,0.118l0.18,0.118l0.179,0.117l0.18,0.117l0.18,0.117l0.181,0.116l0.18,0.117l0.181,0.116l0.181,0.115l0.181,0.115l0.181,0.115l0.181,0.115l0.182,0.114l0.181,0.114l0.182,0.113l0.182,0.114l0.122,0.075l0,-86.267l-61.392,0l0.036,0.144l0.054,0.22Z" style="fill:#fff;"/></g><g><path d="M234.683,100.644l64.795,0c-8.888,38.117 -32.92,71.635 -64.795,90.426l0,-90.426Z" style="fill:#f2be18;fill-rule:nonzero;"/><path d="M301.339,99.169l-0.477,2.036l-0.053,0.225l-0.054,0.225l-0.053,0.225l-0.055,0.225l-0.054,0.226l-0.055,0.224l-0.055,0.225l-0.056,0.225l-0.056,0.225l-0.056,0.224l-0.056,0.224l-0.057,0.225l-0.058,0.224l-0.057,0.224l-0.058,0.224l-0.059,0.223l-0.058,0.224l-0.059,0.224l-0.06,0.223l-0.06,0.223l-0.06,0.224l-0.06,0.223l-0.061,0.223l-0.061,0.223l-0.061,0.222l-0.062,0.223l-0.062,0.222l-0.063,0.223l-0.062,0.222l-0.063,0.222l-0.064,0.222l-0.064,0.222l-0.064,0.222l-0.064,0.221l-0.065,0.222l-0.065,0.221l-0.066,0.222l-0.066,0.221l-0.066,0.221l-0.066,0.221l-0.067,0.22l-0.067,0.221l-0.068,0.221l-0.068,0.22l-0.068,0.22l-0.068,0.221l-0.069,0.22l-0.07,0.219l-0.069,0.22l-0.07,0.22l-0.07,0.219l-0.071,0.22l-0.07,0.219l-0.072,0.219l-0.071,0.219l-0.072,0.219l-0.072,0.218l-0.073,0.219l-0.073,0.218l-0.073,0.219l-0.073,0.218l-0.074,0.218l-0.074,0.218l-0.075,0.218l-0.075,0.217l-0.075,0.218l-0.075,0.217l-0.076,0.217l-0.076,0.217l-0.077,0.217l-0.076,0.217l-0.078,0.217l-0.077,0.216l-0.078,0.217l-0.078,0.216l-0.078,0.216l-0.079,0.216l-0.079,0.216l-0.079,0.216l-0.08,0.215l-0.08,0.215l-0.08,0.216l-0.081,0.215l-0.081,0.215l-0.081,0.214l-0.082,0.215l-0.082,0.215l-0.082,0.214l-0.083,0.214l-0.083,0.214l-0.083,0.214l-0.084,0.214l-0.084,0.214l-0.084,0.213l-0.084,0.213l-0.085,0.214l-0.085,0.213l-0.086,0.213l-0.086,0.212l-0.086,0.213l-0.086,0.212l-0.087,0.212l-0.087,0.213l-0.087,0.212l-0.088,0.211l-0.088,0.212l-0.088,0.211l-0.089,0.212l-0.089,0.211l-0.089,0.211l-0.09,0.211l-0.09,0.211l-0.09,0.21l-0.09,0.21l-0.091,0.211l-0.091,0.21l-0.092,0.21l-0.092,0.209l-0.092,0.21l-0.092,0.209l-0.093,0.21l-0.093,0.209l-0.093,0.209l-0.094,0.209l-0.094,0.208l-0.094,0.209l-0.094,0.208l-0.095,0.208l-0.095,0.208l-0.096,0.208l-0.096,0.207l-0.096,0.208l-0.096,0.207l-0.097,0.207l-0.097,0.207l-0.097,0.207l-0.098,0.207l-0.098,0.206l-0.098,0.206l-0.098,0.206l-0.099,0.206l-0.099,0.206l-0.1,0.206l-0.1,0.205l-0.1,0.205l-0.1,0.206l-0.101,0.204l-0.1,0.205l-0.102,0.205l-0.101,0.204l-0.102,0.204l-0.102,0.204l-0.103,0.204l-0.102,0.204l-0.104,0.203l-0.103,0.204l-0.104,0.203l-0.103,0.203l-0.105,0.203l-0.104,0.202l-0.105,0.203l-0.105,0.202l-0.106,0.202l-0.105,0.202l-0.106,0.202l-0.107,0.201l-0.106,0.201l-0.107,0.202l-0.107,0.2l-0.108,0.201l-0.108,0.201l-0.108,0.2l-0.108,0.201l-0.109,0.2l-0.109,0.199l-0.109,0.2l-0.11,0.2l-0.109,0.199l-0.111,0.199l-0.11,0.199l-0.111,0.199l-0.111,0.198l-0.111,0.199l-0.111,0.198l-0.112,0.198l-0.112,0.198l-0.113,0.197l-0.113,0.198l-0.113,0.197l-0.113,0.197l-0.114,0.197l-0.113,0.196l-0.115,0.197l-0.114,0.196l-0.115,0.196l-0.115,0.196l-0.115,0.196l-0.116,0.195l-0.116,0.195l-0.116,0.195l-0.116,0.195l-0.117,0.195l-0.117,0.194l-0.117,0.195l-0.118,0.194l-0.118,0.193l-0.118,0.194l-0.118,0.194l-0.119,0.193l-0.119,0.193l-0.119,0.193l-0.12,0.193l-0.12,0.192l-0.12,0.192l-0.12,0.192l-0.121,0.192l-0.121,0.192l-0.121,0.191l-0.121,0.191l-0.122,0.191l-0.122,0.191l-0.123,0.191l-0.122,0.19l-0.123,0.19l-0.123,0.19l-0.124,0.19l-0.123,0.19l-0.124,0.189l-0.125,0.189l-0.124,0.189l-0.125,0.189l-0.125,0.188l-0.126,0.189l-0.125,0.188l-0.126,0.188l-0.126,0.187l-0.127,0.188l-0.126,0.187l-0.127,0.187l-0.128,0.187l-0.127,0.186l-0.128,0.187l-0.128,0.186l-0.128,0.186l-0.129,0.185l-0.129,0.186l-0.129,0.185l-0.13,0.185l-0.129,0.185l-0.13,0.185l-0.131,0.184l-0.13,0.184l-0.131,0.184l-0.131,0.184l-0.131,0.184l-0.132,0.183l-0.132,0.183l-0.132,0.183l-0.132,0.182l-0.133,0.183l-0.133,0.182l-0.133,0.182l-0.133,0.182l-0.134,0.181l-0.134,0.181l-0.134,0.181l-0.134,0.181l-0.135,0.181l-0.135,0.18l-0.135,0.18l-0.136,0.18l-0.136,0.18l-0.136,0.179l-0.136,0.179l-0.137,0.179l-0.136,0.179l-0.138,0.179l-0.137,0.178l-0.137,0.178l-0.138,0.178l-0.139,0.177l-0.138,0.178l-0.138,0.177l-0.139,0.177l-0.14,0.176l-0.139,0.177l-0.14,0.176l-0.14,0.176l-0.14,0.175l-0.14,0.176l-0.141,0.175l-0.141,0.175l-0.141,0.175l-0.141,0.174l-0.142,0.174l-0.142,0.174l-0.142,0.174l-0.143,0.174l-0.142,0.173l-0.143,0.173l-0.144,0.173l-0.143,0.172l-0.144,0.173l-0.144,0.172l-0.144,0.172l-0.144,0.171l-0.145,0.172l-0.145,0.171l-0.145,0.17l-0.146,0.171l-0.145,0.17l-0.146,0.17l-0.147,0.17l-0.146,0.17l-0.147,0.169l-0.147,0.169l-0.147,0.169l-0.147,0.169l-0.148,0.168l-0.148,0.168l-0.148,0.168l-0.149,0.167l-0.148,0.168l-0.149,0.167l-0.149,0.167l-0.15,0.166l-0.149,0.167l-0.15,0.166l-0.15,0.165l-0.151,0.166l-0.15,0.165l-0.151,0.165l-0.151,0.165l-0.152,0.165l-0.151,0.164l-0.152,0.164l-0.152,0.164l-0.152,0.163l-0.153,0.163l-0.153,0.163l-0.153,0.163l-0.153,0.162l-0.154,0.163l-0.153,0.161l-0.154,0.162l-0.154,0.161l-0.155,0.162l-0.154,0.16l-0.155,0.161l-0.156,0.16l-0.155,0.16l-0.156,0.16l-0.155,0.16l-0.156,0.159l-0.157,0.159l-0.156,0.159l-0.157,0.158l-0.157,0.158l-0.157,0.158l-0.158,0.158l-0.158,0.157l-0.158,0.157l-0.158,0.157l-0.158,0.157l-0.159,0.156l-0.159,0.156l-0.159,0.156l-0.159,0.155l-0.16,0.155l-0.16,0.155l-0.16,0.155l-0.16,0.154l-0.16,0.154l-0.161,0.154l-0.161,0.154l-0.161,0.153l-0.162,0.153l-0.161,0.153l-0.162,0.152l-0.162,0.152l-0.162,0.152l-0.163,0.152l-0.163,0.151l-0.163,0.151l-0.163,0.151l-0.163,0.15l-0.164,0.15l-0.164,0.15l-0.164,0.15l-0.164,0.149l-0.165,0.149l-0.164,0.149l-0.166,0.148l-0.165,0.149l-0.165,0.147l-0.166,0.148l-0.166,0.147l-0.166,0.147l-0.166,0.147l-0.167,0.147l-0.166,0.146l-0.167,0.146l-0.167,0.145l-0.168,0.146l-0.167,0.145l-0.168,0.144l-0.168,0.145l-0.169,0.144l-0.168,0.144l-0.169,0.143l-0.169,0.144l-0.169,0.143l-0.169,0.142l-0.17,0.143l-0.17,0.142l-0.17,0.141l-0.17,0.142l-0.17,0.141l-0.171,0.141l-0.171,0.141l-0.171,0.14l-0.171,0.14l-0.172,0.14l-0.171,0.139l-0.172,0.139l-0.172,0.139l-0.173,0.138l-0.172,0.139l-0.173,0.138l-0.173,0.137l-0.173,0.137l-0.174,0.137l-0.173,0.137l-0.174,0.137l-0.174,0.136l-0.174,0.135l-0.175,0.136l-0.174,0.135l-0.175,0.135l-0.175,0.134l-0.176,0.135l-0.175,0.134l-0.176,0.133l-0.176,0.134l-0.176,0.133l-0.176,0.132l-0.176,0.133l-0.177,0.132l-0.177,0.131l-0.177,0.132l-0.177,0.131l-0.178,0.131l-0.178,0.13l-0.178,0.131l-0.178,0.13l-0.178,0.129l-0.179,0.129l-0.178,0.129l-0.179,0.129l-0.179,0.128l-0.18,0.128l-0.179,0.128l-0.18,0.127l-0.18,0.127l-0.18,0.127l-0.18,0.127l-0.181,0.126l-0.18,0.125l-0.181,0.126l-0.181,0.125l-0.182,0.125l-0.181,0.124l-0.182,0.125l-0.182,0.123l-0.182,0.124l-0.182,0.123l-0.183,0.123l-0.182,0.123l-0.183,0.122l-0.183,0.122l-0.184,0.121l-0.183,0.122l-0.184,0.12l-0.183,0.121l-0.185,0.12l-0.184,0.12l-0.184,0.12l-0.185,0.119l-0.185,0.119l-0.185,0.119l-0.185,0.118l-0.185,0.118l-0.186,0.118l-0.185,0.117l-0.186,0.117l-0.186,0.116l-0.187,0.117l-0.186,0.116l-0.187,0.115l-0.187,0.116l-0.187,0.115l-0.187,0.114l-0.188,0.115l-0.187,0.114l-0.188,0.113l-0.188,0.113l-0.188,0.113l-0.189,0.113l-0.188,0.112l-0.189,0.112l-2.413,1.426l0,-94.486l68.131,0Zm-65.181,2.95l0,86.336l0.16,-0.098l0.182,-0.114l0.182,-0.113l0.182,-0.114l0.181,-0.114l0.182,-0.115l0.181,-0.115l0.181,-0.115l0.181,-0.115l0.181,-0.116l0.18,-0.117l0.18,-0.116l0.18,-0.117l0.18,-0.117l0.18,-0.118l0.18,-0.117l0.179,-0.118l0.179,-0.119l0.179,-0.119l0.179,-0.119l0.179,-0.119l0.178,-0.12l0.179,-0.12l0.178,-0.12l0.178,-0.121l0.177,-0.121l0.178,-0.121l0.177,-0.122l0.177,-0.122l0.177,-0.122l0.177,-0.123l0.177,-0.123l0.176,-0.123l0.176,-0.123l0.176,-0.124l0.176,-0.124l0.176,-0.125l0.175,-0.125l0.175,-0.125l0.175,-0.125l0.175,-0.126l0.175,-0.126l0.175,-0.126l0.174,-0.127l0.174,-0.127l0.174,-0.127l0.173,-0.128l0.174,-0.128l0.173,-0.128l0.173,-0.128l0.173,-0.129l0.173,-0.129l0.173,-0.13l0.172,-0.129l0.172,-0.13l0.172,-0.131l0.172,-0.13l0.171,-0.131l0.172,-0.131l0.171,-0.132l0.171,-0.132l0.17,-0.132l0.171,-0.132l0.17,-0.133l0.17,-0.133l0.17,-0.134l0.17,-0.133l0.17,-0.134l0.169,-0.134l0.169,-0.135l0.169,-0.135l0.169,-0.135l0.168,-0.135l0.169,-0.136l0.168,-0.136l0.168,-0.137l0.167,-0.136l0.168,-0.137l0.167,-0.137l0.167,-0.138l0.167,-0.138l0.167,-0.138l0.166,-0.138l0.167,-0.139l0.166,-0.139l0.166,-0.139l0.165,-0.14l0.166,-0.139l0.165,-0.14l0.165,-0.141l0.165,-0.141l0.164,-0.141l0.165,-0.141l0.164,-0.141l0.164,-0.142l0.164,-0.142l0.163,-0.143l0.164,-0.143l0.163,-0.143l0.162,-0.143l0.163,-0.143l0.163,-0.144l0.162,-0.144l0.162,-0.145l0.162,-0.144l0.162,-0.146l0.161,-0.145l0.161,-0.145l0.161,-0.146l0.161,-0.146l0.161,-0.147l0.16,-0.146l0.16,-0.147l0.16,-0.147l0.16,-0.148l0.159,-0.148l0.159,-0.148l0.159,-0.148l0.159,-0.149l0.159,-0.149l0.158,-0.149l0.158,-0.149l0.158,-0.15l0.158,-0.15l0.158,-0.15l0.157,-0.151l0.157,-0.151l0.157,-0.151l0.156,-0.151l0.157,-0.152l0.156,-0.151l0.156,-0.153l0.156,-0.152l0.155,-0.153l0.155,-0.153l0.156,-0.153l0.154,-0.153l0.155,-0.154l0.154,-0.154l0.154,-0.155l0.154,-0.154l0.154,-0.155l0.154,-0.155l0.153,-0.156l0.153,-0.155l0.153,-0.156l0.152,-0.156l0.153,-0.157l0.152,-0.156l0.152,-0.157l0.151,-0.157l0.152,-0.158l0.151,-0.158l0.151,-0.158l0.151,-0.158l0.15,-0.158l0.15,-0.159l0.151,-0.159l0.149,-0.16l0.15,-0.159l0.149,-0.16l0.149,-0.16l0.149,-0.16l0.149,-0.161l0.148,-0.161l0.149,-0.161l0.147,-0.161l0.148,-0.162l0.148,-0.162l0.147,-0.162l0.147,-0.162l0.147,-0.163l0.146,-0.163l0.147,-0.163l0.146,-0.163l0.146,-0.164l0.145,-0.164l0.145,-0.164l0.146,-0.164l0.144,-0.165l0.145,-0.165l0.144,-0.165l0.145,-0.165l0.144,-0.166l0.143,-0.165l0.144,-0.167l0.143,-0.166l0.143,-0.166l0.143,-0.167l0.142,-0.167l0.142,-0.168l0.142,-0.167l0.142,-0.168l0.141,-0.168l0.142,-0.168l0.141,-0.169l0.141,-0.169l0.14,-0.169l0.14,-0.169l0.14,-0.17l0.14,-0.169l0.14,-0.17l0.139,-0.171l0.139,-0.17l0.139,-0.171l0.139,-0.171l0.138,-0.171l0.138,-0.171l0.138,-0.172l0.137,-0.172l0.138,-0.172l0.137,-0.172l0.137,-0.173l0.136,-0.173l0.136,-0.173l0.136,-0.173l0.136,-0.173l0.136,-0.174l0.135,-0.174l0.135,-0.174l0.135,-0.175l0.135,-0.174l0.134,-0.175l0.134,-0.175l0.134,-0.176l0.133,-0.175l0.134,-0.176l0.133,-0.176l0.133,-0.176l0.132,-0.177l0.132,-0.177l0.132,-0.177l0.132,-0.177l0.132,-0.177l0.131,-0.178l0.131,-0.178l0.131,-0.178l0.13,-0.178l0.13,-0.178l0.13,-0.179l0.13,-0.179l0.129,-0.179l0.13,-0.18l0.129,-0.179l0.128,-0.18l0.129,-0.18l0.128,-0.18l0.128,-0.181l0.127,-0.181l0.128,-0.181l0.127,-0.181l0.127,-0.181l0.126,-0.182l0.126,-0.181l0.127,-0.182l0.125,-0.183l0.126,-0.182l0.125,-0.183l0.125,-0.182l0.125,-0.184l0.124,-0.183l0.125,-0.183l0.123,-0.184l0.124,-0.184l0.124,-0.184l0.123,-0.184l0.123,-0.185l0.122,-0.185l0.122,-0.185l0.123,-0.185l0.121,-0.185l0.122,-0.186l0.121,-0.186l0.121,-0.186l0.121,-0.186l0.12,-0.186l0.12,-0.187l0.12,-0.187l0.12,-0.187l0.119,-0.187l0.119,-0.187l0.119,-0.188l0.119,-0.188l0.118,-0.188l0.118,-0.188l0.118,-0.189l0.117,-0.188l0.117,-0.189l0.117,-0.189l0.117,-0.189l0.116,-0.19l0.116,-0.189l0.116,-0.19l0.116,-0.19l0.115,-0.19l0.115,-0.191l0.115,-0.19l0.114,-0.191l0.114,-0.191l0.114,-0.192l0.114,-0.191l0.113,-0.192l0.113,-0.191l0.113,-0.192l0.112,-0.193l0.112,-0.192l0.112,-0.192l0.112,-0.193l0.111,-0.193l0.111,-0.193l0.111,-0.194l0.111,-0.193l0.11,-0.194l0.11,-0.194l0.11,-0.194l0.109,-0.194l0.109,-0.194l0.109,-0.195l0.108,-0.195l0.109,-0.195l0.108,-0.195l0.107,-0.195l0.108,-0.196l0.107,-0.196l0.107,-0.196l0.106,-0.196l0.106,-0.196l0.106,-0.197l0.106,-0.196l0.105,-0.197l0.105,-0.197l0.105,-0.197l0.105,-0.198l0.104,-0.197l0.104,-0.198l0.103,-0.198l0.104,-0.198l0.103,-0.198l0.103,-0.199l0.102,-0.198l0.102,-0.199l0.102,-0.199l0.102,-0.199l0.101,-0.2l0.101,-0.199l0.101,-0.2l0.1,-0.2l0.1,-0.2l0.1,-0.2l0.1,-0.2l0.099,-0.201l0.099,-0.2l0.099,-0.201l0.098,-0.201l0.098,-0.202l0.098,-0.201l0.097,-0.201l0.098,-0.202l0.096,-0.202l0.097,-0.202l0.096,-0.202l0.096,-0.203l0.096,-0.202l0.095,-0.203l0.096,-0.203l0.094,-0.203l0.095,-0.203l0.094,-0.204l0.094,-0.203l0.093,-0.204l0.094,-0.204l0.093,-0.204l0.092,-0.204l0.093,-0.204l0.092,-0.205l0.092,-0.204l0.091,-0.205l0.091,-0.205l0.091,-0.205l0.091,-0.206l0.09,-0.205l0.09,-0.206l0.09,-0.206l0.089,-0.206l0.089,-0.206l0.089,-0.206l0.088,-0.206l0.088,-0.207l0.088,-0.207l0.088,-0.206l0.087,-0.208l0.087,-0.207l0.086,-0.207l0.087,-0.208l0.086,-0.207l0.085,-0.208l0.086,-0.208l0.085,-0.208l0.084,-0.208l0.085,-0.209l0.084,-0.208l0.084,-0.209l0.083,-0.209l0.083,-0.209l0.083,-0.209l0.083,-0.209l0.082,-0.209l0.082,-0.21l0.082,-0.21l0.081,-0.21l0.081,-0.21l0.08,-0.21l0.081,-0.21l0.08,-0.21l0.08,-0.211l0.079,-0.211l0.079,-0.211l0.079,-0.21l0.078,-0.212l0.078,-0.211l0.078,-0.211l0.078,-0.212l0.077,-0.211l0.077,-0.212l0.076,-0.212l0.077,-0.212l0.075,-0.213l0.076,-0.212l0.075,-0.213l0.075,-0.212l0.075,-0.213l0.074,-0.213l0.074,-0.213l0.074,-0.213l0.073,-0.214l0.073,-0.213l0.073,-0.214l0.072,-0.213l0.072,-0.214l0.072,-0.214l0.072,-0.214l0.071,-0.215l0.07,-0.214l0.071,-0.214l0.07,-0.215l0.07,-0.215l0.069,-0.215l0.069,-0.215l0.069,-0.215l0.068,-0.215l0.069,-0.216l0.067,-0.215l0.068,-0.216l0.067,-0.215l0.067,-0.216l0.066,-0.216l0.067,-0.217l0.066,-0.216l0.065,-0.216l0.065,-0.217l0.065,-0.216l0.065,-0.217l0.064,-0.217l0.064,-0.217l0.063,-0.217l0.063,-0.217l0.063,-0.218l0.063,-0.217l0.062,-0.218l0.062,-0.218l0.061,-0.217l0.062,-0.218l0.06,-0.218l0.061,-0.219l0.06,-0.218l0.06,-0.218l0.06,-0.219l0.059,-0.218l0.059,-0.219l0.058,-0.219l0.058,-0.219l0.058,-0.219l0.058,-0.219l0.057,-0.22l0.057,-0.219l0.056,-0.219l0.056,-0.22l0.056,-0.22l0.056,-0.22l0.055,-0.22l0.055,-0.22l0.043,-0.175l-61.449,0Z" style="fill:#fff;"/></g><path d="M232.647,70.654c0,0 -10.916,-10 -12.666,4.583c-1.75,14.583 -4,17 -4,17l2.583,11.083l7.667,-0.5l8.166,-7.833l7.917,2.083l7.167,0.667l-0.667,-8.917l-2.083,-14.333l8.75,-3l-5.25,-7l-13.834,-1.583l-3.75,7.75Z" style="fill:#fff;fill-rule:nonzero;stroke:#fff;stroke-width:3px;"/><path d="M229.865,117.705l-11.5,13.5l4.687,11.812l19.949,-0.072l-13.136,-25.24Z" style="fill:#fff;fill-rule:nonzero;"/><path d="M238.105,141.516c-0.736,0 -1.364,-0.535 -1.48,-1.261c-0.69,-4.28 -2.008,-8.737 -3.919,-13.245c-0.207,-0.488 -0.141,-1.049 0.172,-1.475c0.286,-0.387 0.735,-0.611 1.208,-0.611c0.05,0 0.1,0.003 0.151,0.008c0.149,0.015 0.256,0.028 0.36,0.028c1.596,0 2.708,-0.918 2.708,-1.742c0,-0.577 -0.522,-1.16 -1.331,-1.484c-1.423,-0.59 -2.715,-1.404 -3.856,-2.426c-0.043,-0.039 -0.084,-0.08 -0.122,-0.123c-2.073,3.839 -4.905,6.627 -6.223,7.624c-3.485,2.633 -5.252,5.164 -5.252,7.522c0,0.066 0.001,0.131 0.004,0.197l4.793,-0.887c0.091,-0.016 0.183,-0.024 0.273,-0.024c0.592,0 1.14,0.351 1.379,0.911l2.089,4.9c0.197,0.463 0.15,0.995 -0.128,1.415c-0.278,0.42 -0.748,0.673 -1.252,0.673l-12.904,0c-0.798,0 -1.456,-0.625 -1.498,-1.421c-0.265,-5.01 -1.382,-9.918 -3.32,-14.587c-0.316,-0.762 0.042,-1.636 0.801,-1.956c2,-0.847 5.763,-4.773 6.493,-6.776c0.751,-2.057 0.75,-2.535 0.75,-3.956l0,-0.189c0,-2.961 -1.088,-5.79 -3.063,-7.965l-0.105,-0.116c-0.209,-0.234 -0.413,-0.477 -0.613,-0.733c-0.455,-0.58 -2.071,-3.422 -2.251,-3.867c-0.774,-1.911 -1.168,-3.934 -1.168,-6.013c0,-3.98 1.55,-7.299 3.048,-10.509c1.183,-2.534 2.3,-4.926 2.449,-7.336c0.093,-1.516 -0.435,-3.035 -1.451,-4.167c-0.967,-1.076 -2.27,-1.705 -3.674,-1.771c-0.087,-0.004 -0.173,-0.006 -0.259,-0.006c-2.979,0 -5.402,2.423 -5.402,5.402c0,2.444 1.61,3.493 2.959,3.944c0.481,0.16 0.848,0.551 0.977,1.041c0.128,0.49 0.001,1.011 -0.338,1.387c-0.247,0.273 -0.532,0.505 -0.843,0.689c0.305,0.585 0.534,1.272 0.568,2.087c0.094,2.381 -1.523,4.403 -3.844,4.809c-0.277,0.049 -0.557,0.073 -0.834,0.073c-2.581,0 -4.681,-2.1 -4.681,-4.681c0,-0.338 0.038,-0.68 0.113,-1.016c0.155,-0.688 0.765,-1.173 1.463,-1.173c0.025,0 0.048,0.001 0.073,0.002c0.195,0.01 0.38,0.056 0.549,0.133c-0.006,-0.014 -0.012,-0.027 -0.018,-0.04c-0.54,-1.207 -1.358,-3.032 -1.358,-6.257c0,-5.545 3.847,-10.351 8.949,-11.178c0.036,-0.006 0.072,-0.011 0.108,-0.014c0.374,-0.035 0.847,-0.079 1.439,-0.079c0.991,0 1.934,0.122 2.806,0.364c4.574,1.264 7.769,5.75 7.769,10.907c0,3.357 -1.178,6.241 -2.316,9.03c-1.004,2.459 -1.952,4.782 -1.952,7.169c0,1.912 0.827,3.934 2.407,4.101c1.377,-0.147 6.901,-6.246 6.901,-11.341c0,-3.3 -1.018,-6.453 -2.943,-9.121c-0.091,-0.127 -0.161,-0.265 -0.209,-0.409c-0.228,-0.004 -0.456,-0.061 -0.666,-0.17c-0.494,-0.259 -0.803,-0.771 -0.803,-1.329c0,-1.206 -0.446,-2.425 -1.192,-3.26c-1.012,-1.179 -1.56,-2.653 -1.56,-4.174c0,-0.95 0.206,-1.868 0.596,-2.702c-0.418,-0.23 -0.811,-0.507 -1.172,-0.827c-0.463,-0.411 -0.626,-1.065 -0.41,-1.645c0.216,-0.581 0.767,-0.969 1.386,-0.977c0.508,-0.006 1.07,-0.335 1.165,-0.95c0.369,-2.406 1.815,-4.406 3.84,-5.449c-0.072,-0.337 -0.108,-0.683 -0.108,-1.032c0,-1.064 0.29,-2.076 0.815,-2.849c0.279,-0.411 0.744,-0.657 1.24,-0.657l0.009,0c0.5,0.003 0.965,0.255 1.241,0.671c0.544,0.82 1.362,1.271 2.304,1.271l0.145,-0.003c0.183,-0.009 0.398,-0.028 0.633,-0.048c0.494,-0.042 1.109,-0.095 1.739,-0.095c0.064,0 0.128,0.001 0.192,0.003c0.164,-0.414 0.505,-0.739 0.937,-0.877c0.151,-0.049 0.305,-0.072 0.458,-0.072c0.372,0 0.738,0.139 1.019,0.399c0.76,0.703 1.883,0.779 2.33,0.779c2.099,0 4.032,1.142 5.046,2.981c1.278,-0.182 2.596,-0.258 3.897,-0.258c1.431,0 2.874,0.09 4.289,0.267c0.528,0.066 0.981,0.406 1.192,0.895c0.21,0.488 0.146,1.052 -0.169,1.48c-0.966,1.317 -1.517,2.873 -1.593,4.499c-0.01,0.213 -0.064,0.418 -0.157,0.602c0.079,0.027 0.158,0.054 0.236,0.082c0.82,0.284 1.666,0.578 2.348,0.578c0.311,0 0.564,-0.061 0.795,-0.19c0.23,-0.129 0.482,-0.191 0.733,-0.191c0.39,0 0.775,0.151 1.064,0.442c0.474,0.477 0.573,1.212 0.241,1.798c-0.873,1.54 -2.222,2.355 -3.899,2.355c-1.034,0 -2.043,-0.302 -2.975,-0.641c0.043,0.108 0.073,0.221 0.09,0.338c0.406,0.538 0.388,1.245 -0.023,1.78c-0.513,0.671 -0.924,1.423 -1.217,2.237c-0.117,0.321 -0.336,0.589 -0.62,0.764c0.145,0.219 0.284,0.443 0.417,0.669c0.161,-0.057 0.33,-0.087 0.504,-0.087c0.051,0 0.167,0.008 0.167,0.008c1.423,0 5.511,-3.043 8.217,-5.056c3.063,-2.28 5.709,-4.249 7.485,-4.701c1.048,-0.268 2.171,-0.404 3.336,-0.404c1.025,0 2.092,0.105 3.175,0.312c0.474,0.09 0.874,0.402 1.078,0.838c0.203,0.436 0.186,0.944 -0.049,1.364l-0.923,1.66c-0.023,0.04 -0.047,0.079 -0.073,0.117c-0.008,0.204 -0.058,0.407 -0.149,0.595l-0.691,1.425c-0.042,0.087 -0.093,0.169 -0.15,0.245c-0.01,0.236 -0.077,0.471 -0.198,0.682l-0.694,1.204c-0.27,0.467 -0.767,0.75 -1.3,0.75c-0.039,0 -0.078,-0.001 -0.118,-0.004c-0.124,-0.01 -0.25,-0.015 -0.375,-0.015c-5.484,0 -11.793,9.13 -13.762,12.648c-0.059,0.107 -0.131,0.204 -0.212,0.291c3.109,2.713 6.519,4.12 9.364,5.294c2.639,1.088 4.723,1.948 5.843,3.53c1.391,1.718 2.428,3.703 3.024,5.824c0.128,0.452 0.037,0.937 -0.247,1.312c-0.283,0.374 -0.724,0.594 -1.194,0.595c0,0 -2.134,0.003 -2.135,0.003c-0.146,0 -0.289,-0.021 -0.424,-0.061c-0.135,0.039 -0.277,0.06 -0.421,0.06l-1.663,0c-0.149,0 -0.296,-0.023 -0.434,-0.064c-0.139,0.042 -0.285,0.064 -0.434,0.064c-0.001,0 -1.512,-0.002 -1.512,-0.002c-0.56,-0.001 -1.073,-0.313 -1.33,-0.809c-1.224,-2.36 -3.502,-3.826 -5.943,-3.826c-1.112,0 -2.803,0.367 -3.147,0.517c-0.193,0.084 -0.397,0.125 -0.599,0.125c-0.374,0 -0.744,-0.14 -1.027,-0.408c-0.026,-0.023 -1.953,-1.8 -4.702,-2.96c-0.032,0.195 -0.103,0.386 -0.215,0.562c-1.49,2.326 -3.257,4.214 -4.965,6.041c-0.422,0.449 -0.834,0.891 -1.235,1.329c2.322,1.426 4.309,3.087 5.911,4.939c0.307,0.355 1.845,2.256 2.592,3.407c1.629,2.511 2.811,5.291 3.515,8.265c0.186,0.792 0.279,1.601 0.279,2.406c0,4.166 -2.491,7.934 -6.345,9.598c-1.179,0.511 -1.941,1.684 -1.941,2.99c0,0.543 0.139,1.075 0.399,1.551l5.385,-0.984c0.091,-0.017 0.181,-0.024 0.271,-0.024c0.592,0 1.14,0.351 1.379,0.912l2.088,4.899c0.197,0.463 0.149,0.995 -0.129,1.415c-0.278,0.42 -0.747,0.673 -1.251,0.673l-13.01,0Z" style="fill:#558a3d;fill-rule:nonzero;"/><path d="M219.398,95.227c-0.39,-0.323 -0.797,-1.227 -0.797,-2.48c0,-2.093 0.894,-4.283 1.841,-6.602c0.976,-2.391 2.063,-5.055 2.353,-8.069c1.386,2.228 2.114,4.777 2.114,7.431c0,3.845 -3.863,8.654 -5.511,9.72m30.035,-25.138c0.085,-0.128 0.174,-0.253 0.268,-0.374c0.233,-0.304 0.401,-0.642 0.502,-0.994c0.381,0.062 0.773,0.1 1.171,0.102c-0.686,0.474 -1.352,0.914 -1.941,1.266m-23.045,-21.633c-0.992,0 -1.921,0.491 -2.48,1.313c-0.693,1.019 -1.075,2.331 -1.075,3.693c0,0.082 0.001,0.163 0.004,0.245c-1.881,1.289 -3.219,3.317 -3.666,5.699c-1.137,0.108 -2.123,0.856 -2.527,1.94c-0.432,1.161 -0.106,2.468 0.82,3.29c0.116,0.103 0.235,0.202 0.356,0.298c-0.09,0.326 -0.16,0.659 -0.207,0.998c-1.082,-0.779 -2.298,-1.374 -3.614,-1.738c-1,-0.277 -2.079,-0.417 -3.205,-0.417c-0.671,0 -1.201,0.05 -1.486,0.076l-0.085,0.008c-0.072,0.007 -0.145,0.016 -0.217,0.027c-5.914,0.96 -10.208,6.284 -10.208,12.66c0,2.223 0.353,3.838 0.761,5.06c-0.709,0.408 -1.244,1.1 -1.433,1.947c-0.099,0.443 -0.15,0.895 -0.15,1.343c0,3.409 2.773,6.182 6.181,6.182c0.364,0 0.732,-0.032 1.094,-0.096c3.069,-0.537 5.207,-3.205 5.083,-6.344c-0.023,-0.569 -0.117,-1.087 -0.258,-1.557c0.05,-0.051 0.099,-0.103 0.147,-0.156c0.679,-0.751 0.933,-1.795 0.675,-2.774c-0.257,-0.979 -0.992,-1.762 -1.952,-2.083c-1.733,-0.578 -1.934,-1.715 -1.934,-2.52c0,-1.043 0.406,-2.023 1.143,-2.76c0.737,-0.737 1.717,-1.142 2.759,-1.142c0.063,0 0.126,0.001 0.19,0.004c0.998,0.047 1.931,0.499 2.627,1.274c0.749,0.835 1.139,1.956 1.07,3.074c-0.131,2.125 -1.19,4.392 -2.31,6.793c-1.495,3.202 -3.19,6.831 -3.19,11.144c0,2.273 0.431,4.487 1.279,6.578c0.22,0.543 1.916,3.534 2.46,4.227c0.222,0.283 0.444,0.549 0.678,0.812c0.035,0.039 0.078,0.087 0.123,0.135c1.715,1.896 2.66,4.361 2.66,6.942l0,0.19c0.001,1.319 0.001,1.633 -0.658,3.439c-0.581,1.592 -4.077,5.236 -5.669,5.91c-1.519,0.642 -2.235,2.39 -1.602,3.913c1.872,4.511 2.952,9.252 3.207,14.091c0.084,1.593 1.401,2.842 2.996,2.842l12.904,0c1.008,0 1.948,-0.506 2.503,-1.347c0.556,-0.84 0.652,-1.903 0.257,-2.83l-2.089,-4.899c-0.478,-1.121 -1.574,-1.824 -2.758,-1.824c-0.181,0 -0.364,0.016 -0.547,0.05l-2.634,0.487c0.641,-1.43 2.068,-2.987 4.266,-4.647c1.219,-0.922 3.65,-3.28 5.717,-6.556c0.93,0.667 1.93,1.223 2.989,1.662c0.091,0.037 0.166,0.074 0.228,0.109c-0.21,0.119 -0.551,0.239 -1.014,0.239c-0.043,-0.002 -0.103,-0.01 -0.162,-0.016c-0.102,-0.011 -0.204,-0.016 -0.305,-0.016c-0.95,0 -1.866,0.446 -2.435,1.217c-0.629,0.853 -0.784,1.973 -0.371,2.949c1.864,4.398 3.149,8.738 3.819,12.899c0.235,1.454 1.489,2.523 2.962,2.523l13.01,0c1.007,0 1.947,-0.506 2.503,-1.346c0.555,-0.841 0.652,-1.904 0.257,-2.83l-2.088,-4.9c-0.478,-1.121 -1.575,-1.824 -2.759,-1.824c-0.179,0 -0.359,0.016 -0.54,0.049l-4.006,0.732c0.061,-0.634 0.451,-1.187 1.029,-1.437c4.402,-1.901 7.248,-6.209 7.248,-10.975c0,-0.92 -0.107,-1.844 -0.318,-2.745c-0.745,-3.148 -1.995,-6.086 -3.716,-8.741c-0.786,-1.21 -2.354,-3.153 -2.722,-3.577c-1.336,-1.546 -2.924,-2.965 -4.734,-4.234c0.007,-0.008 0.015,-0.016 0.023,-0.024c1.534,-1.64 3.256,-3.48 4.737,-5.657c1.801,0.967 3.002,2.064 3.022,2.083c0.568,0.534 1.306,0.814 2.056,0.814c0.392,0 0.786,-0.076 1.161,-0.234c0.397,-0.139 1.764,-0.407 2.584,-0.407c1.879,0 3.646,1.156 4.612,3.016c0.515,0.993 1.54,1.617 2.659,1.618l1.51,0.002c0.002,0 0.003,0 0.004,0c0.147,0 0.292,-0.01 0.434,-0.031c0.143,0.021 0.288,0.031 0.435,0.031l1.663,0c0.141,0 0.28,-0.009 0.418,-0.029c0.14,0.02 0.282,0.03 0.426,0.03l0.005,0l2.132,-0.003c0.939,-0.001 1.823,-0.441 2.389,-1.19c0.566,-0.749 0.749,-1.72 0.495,-2.623c-0.646,-2.292 -1.758,-4.435 -3.306,-6.37c-1.381,-1.879 -3.725,-2.847 -6.433,-3.964c-2.431,-1.003 -5.293,-2.185 -7.966,-4.236c2.457,-4.072 7.908,-11.111 12.003,-11.11c0.085,0 0.172,0.003 0.257,0.01c0.079,0.006 0.158,0.009 0.237,0.009c1.066,0 2.059,-0.568 2.598,-1.502l0.694,-1.204c0.166,-0.287 0.281,-0.596 0.344,-0.914c0.018,-0.035 0.037,-0.071 0.054,-0.107l0.692,-1.424c0.117,-0.243 0.201,-0.498 0.249,-0.758l0.857,-1.539c0.469,-0.841 0.505,-1.856 0.097,-2.729c-0.407,-0.872 -1.209,-1.496 -2.155,-1.677c-1.176,-0.225 -2.338,-0.339 -3.456,-0.339c-1.291,0 -2.539,0.152 -3.709,0.451c-1.605,0.409 -3.476,1.626 -6.122,3.557c0.161,-0.938 -0.13,-1.922 -0.83,-2.625c-0.578,-0.581 -1.348,-0.885 -2.128,-0.885c-0.498,0 -1.001,0.125 -1.459,0.38c0,-0.001 -0.001,-0.001 -0.003,-0.001c-0.009,0 -0.031,0.002 -0.065,0.002c-0.226,0 -0.542,-0.072 -0.888,-0.175c0.137,-1.154 0.569,-2.251 1.264,-3.198c0.629,-0.857 0.757,-1.984 0.336,-2.961c-0.42,-0.977 -1.327,-1.658 -2.383,-1.79c-1.476,-0.184 -2.981,-0.278 -4.474,-0.278c-1.052,0 -2.112,0.047 -3.165,0.14c-1.359,-1.787 -3.491,-2.864 -5.779,-2.864c-0.547,0 -1.062,-0.149 -1.312,-0.38c-0.562,-0.52 -1.293,-0.797 -2.037,-0.797c-0.305,0 -0.613,0.046 -0.913,0.142c-0.5,0.16 -0.94,0.445 -1.286,0.817c-0.461,0.019 -0.889,0.056 -1.253,0.087c-0.216,0.018 -0.413,0.036 -0.581,0.044l-0.071,0.002c-0.435,0 -0.789,-0.202 -1.053,-0.6c-0.553,-0.833 -1.483,-1.336 -2.483,-1.342c-0.006,0 -0.012,0 -0.018,0m11.608,54.18c2.143,1.295 4.114,2.87 5.742,4.753c0.315,0.363 1.79,2.196 2.47,3.243c1.525,2.351 2.647,4.982 3.312,7.793c0.155,0.662 0.239,1.351 0.239,2.06c0,3.693 -2.249,6.844 -5.44,8.222c-1.681,0.728 -2.846,2.417 -2.846,4.366c0,1.227 0.479,2.354 1.239,3.198l6.315,-1.155l2.088,4.9l-13.01,0c-0.765,-4.747 -2.196,-9.292 -4.018,-13.592c0.165,0.016 0.339,0.036 0.51,0.036c2.326,0 4.208,-1.451 4.208,-3.242c0,-1.252 -0.923,-2.336 -2.273,-2.877c-1.261,-0.523 -2.412,-1.254 -3.413,-2.151c0.897,-2.044 1.461,-4.481 1.461,-7.47c0,-3.298 1.431,-5.721 3.416,-8.084m28.804,-38.906c0.959,0 1.93,0.102 2.893,0.286l-0.924,1.659c-0.508,-0.101 -0.974,-0.143 -1.411,-0.143c-1.374,0 -2.468,0.418 -3.702,0.762c0,0 0.933,-0.228 2.194,-0.228c0.805,0 1.743,0.093 2.658,0.396l-0.691,1.425c-0.421,-0.031 -0.824,-0.05 -1.217,-0.05c-0.826,0 -1.608,0.087 -2.429,0.345c-0.121,0.036 -0.231,0.075 -0.349,0.117c0,0 0.278,-0.044 0.761,-0.044c0.659,0 1.699,0.081 2.936,0.464l-0.694,1.204c-0.164,-0.013 -0.329,-0.019 -0.493,-0.019c-7.564,-0.001 -15.071,13.415 -15.071,13.415l-0.241,-0.173c-0.394,-0.338 -0.758,-0.643 -1.095,-0.909c-0.339,-0.266 -0.676,-0.535 -1.012,-0.805l-0.035,-0.392c-0.097,-1.06 -0.342,-2.094 -0.721,-3.069l1.512,1.126l-1.62,-4.137c-0.149,-0.388 -0.305,-0.76 -0.455,-1.076l0.014,0c0.058,0.006 0.117,0.009 0.179,0.009c3.413,0 12.702,-8.953 16.047,-9.805c0.96,-0.245 1.956,-0.358 2.966,-0.358m-19.613,-0.374c1.558,0 3.494,1.253 5.297,1.253c0.525,0 1.039,-0.106 1.528,-0.38c-0.68,1.2 -1.599,1.594 -2.595,1.594c-1.914,0 -4.113,-1.459 -5.45,-1.459c-0.319,0 -0.588,0.083 -0.794,0.288c0.53,-0.973 1.223,-1.296 2.014,-1.296m-6.208,-5.197l-0.357,-1.682l-3.735,-0.076c1.507,0.244 2.939,0.86 4.092,1.758m-14.591,-6.703c0.79,1.191 2.061,1.942 3.554,1.942c0.072,0 0.145,-0.002 0.219,-0.005c0.575,-0.029 1.431,-0.141 2.299,-0.141c0.628,0 1.224,0.12 1.78,0.33c-0.181,-0.376 -0.261,-0.805 -0.199,-1.248l0.006,-0.028c0.934,0.864 2.228,1.177 3.348,1.177c1.61,0 3.008,0.891 3.733,2.205c0.26,0.47 0.763,0.743 1.292,0.743c0.057,0 0.115,-0.004 0.172,-0.01c1.23,-0.141 2.481,-0.214 3.747,-0.214c1.391,0 2.758,0.087 4.102,0.255c-1.102,1.503 -1.789,3.332 -1.882,5.315c-0.547,-0.471 -1.261,-0.757 -2.041,-0.757c-0.143,0 -0.289,0.01 -0.436,0.03c-1.396,0.191 -2.517,1.343 -2.674,2.743c-0.21,1.891 1.264,3.493 3.112,3.493c0.182,0 0.357,-0.02 0.528,-0.051c0.036,0.244 0.132,0.466 0.273,0.653c-0.609,0.794 -1.094,1.683 -1.44,2.64c-1.498,-1.358 -3.232,-2.461 -5.131,-3.244c-0.357,-0.867 -0.556,-1.816 -0.556,-2.813c0,-0.071 0.009,-0.138 0.011,-0.207c-0.661,0.609 -1.087,1.467 -1.128,2.426c-1.462,-0.434 -3.003,-0.682 -4.595,-0.721c5.662,0.599 10.383,4.345 12.385,9.456c-1.213,-0.904 -2.593,-1.595 -4.082,-2.022c2.67,1.635 3.262,3.25 4.393,6.112c0.787,1.994 1.232,3.149 1.961,3.722c6.417,7.386 15.043,7.749 17.202,10.797c1.264,1.566 2.245,3.373 2.805,5.363l-2.133,0.003c-0.573,-1.706 -1.68,-3.249 -2.876,-4.543c0,0 1.683,2.031 2.032,4.542l-1.663,0c-0.519,-1.242 -1.271,-2.365 -2.202,-3.311c-0.09,-0.093 -0.18,-0.179 -0.275,-0.268c0,0 1.245,1.311 1.608,3.579l-1.51,-0.002c-1.399,-2.695 -4.129,-4.634 -7.275,-4.634c-1.254,0 -3.156,0.384 -3.746,0.641c0,0 -4.056,-3.813 -9.141,-4.298c0,0 0.122,-5.144 -6.053,-8.536c0,0 4.933,5.146 4.024,9.596c0,0 3.037,0.397 3.962,1.124c-4.147,6.478 -10.953,9.801 -10.953,17.43c-0.245,7.077 -5.862,13.218 -8.076,14.892c-2.216,1.674 -5.848,4.8 -5.848,8.719c0,0.676 0.096,1.33 0.27,1.95l6.299,-1.165l2.089,4.9l-12.904,0c-0.281,-5.325 -1.483,-10.388 -3.433,-15.083c2.337,-0.989 6.444,-5.245 7.319,-7.644c0.876,-2.399 0.84,-3.016 0.84,-4.658c0,-3.452 -1.301,-6.605 -3.453,-8.974c-0.031,-0.033 -0.061,-0.066 -0.09,-0.099c-0.194,-0.217 -0.376,-0.436 -0.557,-0.666c-0.379,-0.484 -1.932,-3.235 -2.041,-3.505c-0.683,-1.683 -1.059,-3.523 -1.059,-5.45c0,-6.791 5.134,-11.934 5.495,-17.752c0.238,-3.872 -2.676,-7.349 -6.552,-7.53c-0.111,-0.005 -0.221,-0.007 -0.33,-0.007c-3.811,-0.001 -6.902,3.089 -6.902,6.902c0,2.768 1.63,4.581 3.985,5.366c-0.393,0.435 -0.96,0.706 -1.593,0.706c-0.296,0 -0.565,-0.055 -0.821,-0.164c0.715,0.935 1.693,1.826 1.754,3.301c0.063,1.606 -1.02,2.993 -2.605,3.27c-0.195,0.035 -0.387,0.051 -0.575,0.051c-1.756,0 -3.181,-1.425 -3.181,-3.182c0,-0.237 0.028,-0.465 0.077,-0.688c0.079,0.629 0.609,1.115 1.259,1.115c0.066,0 0.134,-0.005 0.203,-0.015c0.666,-0.104 1.112,-0.743 1.065,-1.415c-0.109,-1.564 -1.782,-2.866 -1.782,-7.347c0,-4.919 3.338,-8.992 7.689,-9.698c0.226,-0.02 0.696,-0.073 1.307,-0.073c0.675,0 1.522,0.064 2.406,0.309c3.86,1.067 6.669,4.934 6.669,9.462c0,5.992 -4.268,10.715 -4.268,16.199c0,2.838 1.4,5.344 3.75,5.592c0.039,0.004 0.079,0.006 0.119,0.006c2.434,0 8.439,-7.17 8.439,-12.838c0,-3.733 -1.197,-7.188 -3.227,-9.999c0.453,-0.782 0.715,-1.692 0.715,-2.661c0,-0.491 -0.072,-0.963 -0.196,-1.413c-0.193,1.274 -0.899,2.34 -1.913,3.044c0,-1.587 -0.592,-3.162 -1.573,-4.259c-0.732,-0.853 -1.179,-1.962 -1.179,-3.175c0,-1.356 0.552,-2.581 1.445,-3.464c-0.96,-0.149 -1.832,-0.572 -2.525,-1.187c1.279,-0.017 2.427,-0.918 2.628,-2.223c0.361,-2.356 2.035,-4.279 4.316,-4.81c-0.358,-0.546 -0.567,-1.196 -0.567,-1.898c0,-0.721 0.177,-1.45 0.555,-2.006" style="fill:#fff;fill-rule:nonzero;"/></g></svg>