<?xml version="1.0" encoding="UTF-8" standalone="no"?>
<svg
   xmlns:serif="http://www.serif.com/"
   xmlns:dc="http://purl.org/dc/elements/1.1/"
   xmlns:cc="http://creativecommons.org/ns#"
   xmlns:rdf="http://www.w3.org/1999/02/22-rdf-syntax-ns#"
   xmlns:svg="http://www.w3.org/2000/svg"
   xmlns="http://www.w3.org/2000/svg"
   xmlns:sodipodi="http://sodipodi.sourceforge.net/DTD/sodipodi-0.dtd"
   xmlns:inkscape="http://www.inkscape.org/namespaces/inkscape"
   width="100%"
   height="100%"
   viewBox="150 5 167 200"
   version="1.1"
   xml:space="preserve"
   style="fill-rule:evenodd;clip-rule:evenodd;stroke-linecap:round;stroke-linejoin:round;stroke-miterlimit:10;"
   id="svg2"
   inkscape:version="0.91 r13725"
   sodipodi:docname="logo_white_low_res.svg"><metadata
     id="metadata43"><rdf:RDF><cc:Work
         rdf:about=""><dc:format>image/svg+xml</dc:format><dc:type
           rdf:resource="http://purl.org/dc/dcmitype/StillImage" /><dc:title></dc:title></cc:Work></rdf:RDF></metadata><defs
     id="defs41" /><sodipodi:namedview
     pagecolor="#cccccc"
     bordercolor="#666666"
     borderopacity="1"
     objecttolerance="10"
     gridtolerance="10"
     guidetolerance="10"
     inkscape:pageopacity="0"
     inkscape:pageshadow="2"
     inkscape:window-width="1920"
     inkscape:window-height="1017"
     id="namedview39"
     showgrid="false"
     inkscape:zoom="9.44"
     inkscape:cx="78.146201"
     inkscape:cy="124.10226"
     inkscape:window-x="1912"
     inkscape:window-y="-8"
     inkscape:window-maximized="1"
     inkscape:current-layer="Ebene-1" /><g
     id="Ebene-1"
     serif:id="Ebene 1"><g
       id="g4266"><path
         style="fill:#ffffff;fill-opacity:1;fill-rule:nonzero"
         d="M 77.859375,14.658203 C 42.107251,15.33172 18.11991,22.497457 13.085938,24.146484 l 0,38.794922 c 0,8.288154 0.761374,16.664605 2.238281,24.982422 l 35.646484,0 c -4.304396,-1.894952 -7.217097,-7.297829 -4.515625,-11.740234 -0.75485,-6.01116 0.411221,-13.498195 6.050781,-17.261719 4.08335,-2.629419 5.580633,-3.956118 10.119903,-3.240036 0.57443,-2.549223 3.228027,-3.851647 4.044557,-6.58938 2.97128,-2.776579 4.263105,-10.10545 9.632415,-10.08713 0.526802,-0.0083 1.043732,0.149613 1.556641,0.246094 z"
         transform="translate(150,5)"
         id="path9"
         inkscape:connector-curvature="0"
         sodipodi:nodetypes="ccsccccccccc" /><path
         style="fill:#ffffff;fill-opacity:1;fill-rule:nonzero"
         d="m 88.666016,14.658203 0,25.629039 c 1.838725,0.518525 4.667781,2.194974 6.184322,3.431905 4.17143,0.41275 13.011992,-0.282058 13.298072,6.00288 0.82325,2.843693 -0.0541,1.741487 1.41323,3.644167 2.58398,-0.601377 5.47123,-2.057925 8.89083,-1.32637 5.40832,-1.01583 11.24345,6.670356 7.42984,11.015327 -0.45193,0.495264 -0.68255,5.936239 -3.76731,7.059057 -4.24632,0.474047 -6.88805,3.830885 -9.55899,7.817995 4.00122,2.645497 6.55038,2.375341 9.87318,6.060746 0.2312,0.251328 2.20964,2.739261 3.06565,4.142743 l 25.55008,-0.211864 c 1.4765,-8.316068 2.23633,-16.695224 2.23633,-24.984375 l 0,-39.517578 c -5.09748,-1.542353 -28.98237,-8.125769 -64.615234,-8.763672 z"
         transform="translate(150,5)"
         id="path15"
         inkscape:connector-curvature="0"
         sodipodi:nodetypes="ccccccccccccscc" /><path
         style="fill:#ffffff;fill-opacity:1;fill-rule:nonzero"
         d="m 18.103516,100.42383 c 9.310932,34.59911 31.106288,64.9567 59.755859,83.27539 l 0,-42.59246 c -3.236738,0.53078 -7.413979,0.1081 -10.305614,0.31538 -4.93703,1.39732 -10.528094,-3.6532 -9.662374,-8.69362 0.51893,-5.4473 -5.081172,-10.99328 -2.480932,-16.19717 3.23653,-3.0259 8.874045,-5.8377 6.905785,-11.31938 -0.910731,-1.67622 -1.991639,-3.11379 -3.033203,-4.78814 z"
         transform="translate(150,5)"
         id="path21"
         inkscape:connector-curvature="0"
         sodipodi:nodetypes="ccccccccc" /><path
         style="fill:#ffffff;fill-opacity:1;fill-rule:nonzero"
         d="m 101.26466,100.42383 c 2.1298,2.73983 3.80168,5.73232 4.88867,9.02297 1.88874,4.24732 1.39858,10.94891 -2.62741,15.23149 1.87456,1.31802 3.41588,4.10408 4.15234,6.58065 1.71102,1.11803 -1.82398,8.69922 -1.65482,6.60265 -0.51931,2.62987 -3.70246,4.13719 -6.139604,3.87835 -4.216041,0.0888 -7.519415,0.0893 -11.21782,-0.29678 l 0,42.1545 c 28.570914,-18.32943 50.302144,-48.63887 59.595704,-83.17383 z"
         transform="translate(150,5)"
         id="path27"
         inkscape:connector-curvature="0"
         sodipodi:nodetypes="cccccccccc" /></g><g
       id="g4260"><path
         style="fill:#ffffff;fill-opacity:1"
         d="m 76.271484,46.599609 -0.140625,0.748047 c -0.15014,0.800312 -0.05039,2.124613 0.203125,2.697266 0.119106,0.269041 -0.0121,0.403667 -0.570312,0.58789 -1.535332,0.506707 -3.540469,2.967033 -3.542969,4.347657 -0.0013,0.716491 -0.774698,1.764377 -1.630859,2.208984 l -0.804688,0.417969 1.113282,0.496094 1.111328,0.49414 -0.576172,0.810547 c -0.456842,0.642073 -0.59268,1.105387 -0.65625,2.230469 -0.09084,1.607575 0.202409,2.525194 1.21289,3.785156 0.727485,0.907096 1.291016,2.346722 1.291016,3.296875 l 0,0.644531 0.558594,-0.513672 c 0.30714,-0.282493 0.759503,-0.942432 1.005859,-1.466796 l 0.449219,-0.953125 0.0625,1.308593 c 0.03801,0.793424 -0.05626,1.592884 -0.240234,2.033204 -0.291292,0.697159 -0.27708,0.769816 0.40625,1.86914 2.090543,3.363288 2.952347,8.116512 2.083984,11.496094 -0.728508,2.835276 -2.87552,6.330077 -5.257813,8.558594 -1.783229,1.668125 -2.644499,1.965737 -3.984375,1.373046 C 66.593549,92.286614 65.6309,90.400103 65.625,87.699219 c -0.0045,-2.072818 0.426313,-3.759832 1.955078,-7.634766 1.495052,-3.789483 1.824584,-4.888239 2.087891,-6.970703 0.276414,-2.186123 -0.02682,-4.157414 -0.935547,-6.078125 -3.249858,-6.869027 -12.524549,-6.837854 -15.783203,0.05273 -1.347022,2.848345 -1.38231,5.913873 -0.109375,9.3125 0.810014,2.162667 0.914471,3.087485 0.40625,3.595703 -0.441028,0.441031 -1.333885,0.421605 -1.855469,-0.03906 -0.41102,-0.363017 -0.417081,-0.354937 -0.279297,0.371094 0.161514,0.85107 0.656794,1.590091 1.472656,2.199218 0.712162,0.531708 2.444296,0.552904 3.228516,0.03906 1.559,-1.021496 1.827294,-3.398312 0.560547,-4.974609 -0.371489,-0.462269 -0.675781,-0.893895 -0.675781,-0.958985 0,-0.0651 0.2912,-0.117187 0.648437,-0.117187 0.357237,0 0.84496,-0.104502 1.083985,-0.232422 0.402584,-0.215457 0.354739,-0.278347 -0.652344,-0.853516 -1.988909,-1.135913 -2.903262,-2.976718 -2.72461,-5.482422 0.120082,-1.684235 0.819138,-3.141464 2.103516,-4.386718 1.417184,-1.374013 2.68206,-1.858522 4.837891,-1.857422 1.556051,7.8e-4 1.952542,0.08076 2.919921,0.58789 2.912042,1.526584 4.393614,4.539629 3.863282,7.859375 -0.279367,1.748769 -0.984504,3.710536 -2.595703,7.22461 -1.986428,4.332457 -2.5301,6.15472 -2.654297,8.902343 -0.08689,1.922353 -0.02661,2.648609 0.341797,4.105469 0.500303,1.978428 1.824204,4.461622 3.455078,6.480469 2.210828,2.736765 3.178753,5.410825 3.220703,8.902335 0.02966,2.46817 -0.480484,4.30351 -1.736328,6.25 -0.922436,1.42974 -4.030469,4.55823 -5.353516,5.38868 l -0.974609,0.61132 0.605469,1.57422 c 1.214181,3.15318 2.355232,8.16445 2.628906,11.54688 l 0.15039,1.85351 6.326172,0 c 3.479737,0 6.328125,-0.0339 6.328125,-0.0742 0,-0.0403 -0.415015,-1.065 -0.921875,-2.27734 -0.554136,-1.32542 -1.055532,-2.22983 -1.257812,-2.26953 -0.185023,-0.0363 -1.602427,0.17493 -3.148438,0.4707 -2.177692,0.41662 -2.849604,0.48069 -2.986328,0.2793 -0.09707,-0.14297 -0.148814,-1.02597 -0.115234,-1.96094 0.110235,-3.06887 1.111993,-4.5238 6.439453,-9.34961 2.722235,-2.4659 4.666867,-5.14581 5.880859,-8.0957 l 1.88086,1.42969 0.455078,0.42773 c 0.250152,0.23501 1.311164,0.88845 2.357422,1.45117 1.675594,0.90121 1.962165,1.14152 2.398437,2.01367 0.359014,0.7178 0.454854,1.1684 0.351563,1.63868 -0.306831,1.39699 -2.004531,2.68743 -3.6875,2.80273 -0.67334,0.0461 -0.84405,0.13128 -0.75,0.37695 1.679218,4.38623 3.220244,9.58377 3.595703,12.12891 l 0.148437,1.00781 6.441406,0 6.439458,0 -0.29102,-0.68945 c -0.16062,-0.37871 -0.60487,-1.42701 -0.986328,-2.33008 -0.479795,-1.13586 -0.804515,-1.64258 -1.054688,-1.64258 -0.198901,0 -1.636325,0.23724 -3.193359,0.52539 -2.190137,0.40531 -2.869668,0.46411 -3.005859,0.26368 -1.123904,-1.65403 -1.336621,-3.579 -0.56836,-5.16602 0.522396,-1.07912 1.243081,-1.7215 2.949219,-2.63086 3.329166,-1.77443 5.237445,-5.48245 4.677734,-9.08984 -0.535758,-3.45304 -2.359008,-7.33965 -5.005859,-10.67383 -1.747805,-2.20167 -3.066173,-3.44891 -5.259766,-4.976558 l -1.246093,-0.867188 -1.324219,-0.964843 c 0.625656,-0.769856 1.317912,-1.573651 2.117187,-2.435547 2.63632,-2.842864 6.254072,-7.380561 6.254072,-7.380561 L 101.2207,90.25 l 1.54883,-0.328125 c 0.98109,-0.208043 2.00927,-0.282705 2.80274,-0.203125 2.3034,0.231006 4.79867,1.735878 5.98828,3.613281 0.51138,0.807057 0.70055,0.946525 1.30859,0.953125 0.66938,0.0073 0.7052,-0.02806 0.57617,-0.576172 -0.0754,-0.320445 -0.37795,-1.054791 -0.67187,-1.632812 -0.50062,-0.984473 -0.50659,-1.024846 -0.082,-0.640625 0.24928,0.225591 0.79366,0.959935 1.20898,1.632812 0.68479,1.109441 0.82232,1.22461 1.48828,1.22461 0.69398,0 0.72838,-0.03345 0.59571,-0.583985 -0.0772,-0.320445 -0.44145,-1.201568 -0.8086,-1.958984 -0.92085,-1.899671 -0.91873,-1.889907 -0.18945,-1.058594 0.35779,0.407839 0.99293,1.383376 1.41211,2.169922 l 0.76172,1.431641 0.95703,0 c 0.89213,0 0.94628,-0.03176 0.81445,-0.476563 -0.44325,-1.495567 -1.79616,-3.750691 -2.95898,-4.93164 -1.17224,-1.190508 -1.53615,-1.404682 -4.66211,-2.736328 -4.25855,-1.814123 -5.09241,-2.232586 -7.25586,-3.636719 -0.62047,-0.402697 -1.30592,-0.933691 -1.99219,-1.50586 4.33711,-6.615343 10.1033,-15.790372 13.53516,-16.101562 1.08204,-0.09812 1.32009,-0.195035 1.50976,-0.611328 0.29292,-0.642888 0.14738,-0.717429 -1.68554,-0.871094 -1.88061,-0.157663 -1.50158,-0.46768 0.78515,-0.640625 1.46207,-0.110576 1.61193,-0.166006 1.88867,-0.701172 0.28109,-0.54357 0.26988,-0.589129 -0.16992,-0.707031 -0.25863,-0.06933 -1.28102,-0.137281 -2.27148,-0.150391 l -1.80078,-0.02344 0.95312,-0.320313 c 0.52437,-0.176591 1.63269,-0.333799 2.46289,-0.349609 1.43112,-0.02725 1.52809,-0.06068 1.86328,-0.644531 0.20376,-0.354929 0.27356,-0.695192 0.16602,-0.802735 -0.31439,-0.314385 -4.28867,-0.214869 -5.46094,0.136719 -1.28424,0.385169 -2.72687,1.297413 -6.84961,4.332031 -5.07158,3.733033 -7.665154,5.31836 -8.701171,5.31836 -0.09553,0 -0.960361,0.308405 -1.908203,0.658203 -0.122373,-0.260266 -0.287064,-0.594773 -0.470703,-0.947266 -0.44043,-0.845399 -0.908379,-1.413208 -0.908379,-1.413208 -0.658893,-0.50994 0.321996,-1.253811 0.810723,-1.928589 1.524885,-2.388583 1.616319,-2.9362 0.488281,-2.9375 -1.529453,-0.0018 -2.887372,-1.506444 -2.888672,-3.199219 -0.0018,-2.274943 2.468207,-3.862989 4.431641,-2.847656 l 0.599609,0.310547 0.246094,-1.248047 c 0.135138,-0.686891 0.52349,-1.800969 0.863281,-2.474609 0.339792,-0.673641 0.566709,-1.275381 0.503909,-1.337891 -0.0628,-0.06251 -1.968128,-0.113281 -4.232424,-0.113281 l -4.115235,0 -0.865234,-1.013672 c -1.09123,-1.276625 -1.726595,-1.600762 -3.583985,-1.833984 -0.818591,-0.102786 -1.876704,-0.379307 -2.349609,-0.613281 l -0.859375,-0.423829 0.115234,0.458985 c 0.114002,0.45413 0.08546,0.4578 -2.576171,0.43164 -2.947229,-0.02897 -3.443968,-0.150964 -4.564453,-1.134765 z m 19.525391,23.033203 c 0.02586,0.0067 0.07277,0.03862 0.115234,0.06445 -0.06007,0.02249 -0.107882,0.0399 -0.167968,0.0625 -0.01038,-0.07416 -0.01486,-0.144573 0.05273,-0.12695 z"
         transform="translate(150,5)"
         id="path4252"
         inkscape:connector-curvature="0"
         sodipodi:nodetypes="ccssscccccssscccccssssscsssssssssssssssssssssssssscccccssscscsscccscssscccccsssssssscccscccsscccssscssccssssscscsssccccsccssscscccccccsssccscccscccccc" /></g></g></svg>