<?xml version="1.0" encoding="UTF-8" standalone="no"?>
<svg
   xmlns:serif="http://www.serif.com/"
   xmlns:dc="http://purl.org/dc/elements/1.1/"
   xmlns:cc="http://creativecommons.org/ns#"
   xmlns:rdf="http://www.w3.org/1999/02/22-rdf-syntax-ns#"
   xmlns:svg="http://www.w3.org/2000/svg"
   xmlns="http://www.w3.org/2000/svg"
   xmlns:sodipodi="http://sodipodi.sourceforge.net/DTD/sodipodi-0.dtd"
   xmlns:inkscape="http://www.inkscape.org/namespaces/inkscape"
   width="100%"
   height="100%"
   viewBox="150 5 167 200"
   version="1.1"
   xml:space="preserve"
   style="fill-rule:evenodd;clip-rule:evenodd;stroke-linecap:round;stroke-linejoin:round;stroke-miterlimit:10;"
   id="svg2"
   inkscape:version="0.91 r13725"
   sodipodi:docname="logo_white.svg"><metadata
     id="metadata43"><rdf:RDF><cc:Work
         rdf:about=""><dc:format>image/svg+xml</dc:format><dc:type
           rdf:resource="http://purl.org/dc/dcmitype/StillImage" /><dc:title></dc:title></cc:Work></rdf:RDF></metadata><defs
     id="defs41" /><sodipodi:namedview
     pagecolor="#cccccc"
     bordercolor="#666666"
     borderopacity="1"
     objecttolerance="10"
     gridtolerance="10"
     guidetolerance="10"
     inkscape:pageopacity="0"
     inkscape:pageshadow="2"
     inkscape:window-width="1920"
     inkscape:window-height="1017"
     id="namedview39"
     showgrid="false"
     inkscape:zoom="3.337544"
     inkscape:cx="98.130741"
     inkscape:cy="99.188376"
     inkscape:window-x="1912"
     inkscape:window-y="-8"
     inkscape:window-maximized="1"
     inkscape:current-layer="g4266" /><g
     id="Ebene-1"
     serif:id="Ebene 1"><g
       id="g4266"><path
         style="fill:#ffffff;fill-opacity:1;fill-rule:nonzero"
         d="M 77.859375 14.658203 C 42.107251 15.33172 18.11991 22.497457 13.085938 24.146484 L 13.085938 62.941406 C 13.085938 71.22956 13.847312 79.606011 15.324219 87.923828 L 50.970703 87.923828 C 46.666307 86.028876 43.753606 80.625999 46.455078 76.183594 C 45.700228 70.172434 46.866299 62.685399 52.505859 58.921875 C 56.589209 56.292456 59.251746 55.813215 63.791016 56.529297 C 64.365446 53.980074 67.548704 52.571717 68.365234 49.833984 C 71.336514 47.057405 70.933424 40.893789 76.302734 40.912109 C 76.829536 40.903819 77.346466 41.061722 77.859375 41.158203 L 77.859375 14.658203 z "
         transform="translate(150,5)"
         id="path9" /><path
         style="fill:#ffffff;fill-rule:nonzero;fill-opacity:1"
         d="M 88.666016 14.658203 L 88.666016 42.935547 C 90.504741 43.454072 92.274475 44.177131 93.791016 45.414062 C 97.962446 45.826812 105.63775 44.92014 105.92383 51.205078 C 104.94624 53.730974 105.97568 54.111819 107.97266 55.378906 C 110.55664 54.777529 114.29134 52.473523 117.71094 53.205078 C 123.11926 52.189248 127.57728 58.604248 123.76367 62.949219 C 123.31174 63.444483 122.12773 68.779526 119.04297 69.902344 C 113.94919 70.058594 110.46 74.26289 107.78906 78.25 C 111.79028 80.895497 116.98775 81.472798 120.31055 85.158203 C 120.54175 85.409531 121.35493 86.520346 122.21094 87.923828 L 151.04492 87.923828 C 152.52142 79.60776 153.28125 71.228604 153.28125 62.939453 L 153.28125 23.421875 C 148.18377 21.879522 124.29888 15.296106 88.666016 14.658203 z "
         transform="translate(150,5)"
         id="path15" /><path
         style="fill:#ffffff;fill-rule:nonzero;fill-opacity:1"
         d="M 18.103516 100.42383 C 27.414448 135.02294 49.209804 165.38053 77.859375 183.69922 L 77.859375 140.36523 C 74.622637 140.89601 70.65726 140.26147 67.765625 140.46875 C 62.828595 141.86607 58.190921 137.76894 59.056641 132.72852 C 59.575571 127.28122 54.081401 122.15897 56.681641 116.95508 C 59.918171 113.92918 65.661619 110.90551 63.693359 105.42383 C 62.782628 103.74761 61.70172 102.09818 60.660156 100.42383 L 18.103516 100.42383 z M 79.873047 139.84375 C 79.788854 139.87797 79.699454 139.90417 79.613281 139.93555 L 79.873047 139.93555 L 79.873047 139.84375 z "
         transform="translate(150,5)"
         id="path21" /><path
         style="fill:#ffffff;fill-opacity:1;fill-rule:nonzero"
         d="M 99.251953 100.42383 C 101.38175 103.16366 103.05363 106.26208 104.14062 109.55273 C 106.02936 113.80005 105.64513 120.71351 101.61914 124.99609 C 103.4937 126.31411 105.03502 129.41796 105.77148 131.89453 C 107.4825 133.01256 105.85428 139.00477 106.02344 136.9082 C 105.50413 139.53807 102.53284 140.72759 100.0957 140.46875 C 96.833049 139.81604 92.364421 140.98181 88.666016 140.5957 L 88.666016 183.59766 C 117.23693 165.26823 138.96816 134.95879 148.26172 100.42383 L 99.251953 100.42383 z "
         transform="translate(150,5)"
         id="path27" /></g><g
       id="g4260"><path
         transform="translate(150,5)"
         inkscape:connector-curvature="0"
         id="path4252"
         d="m 64.71515,133.11635 c -0.273674,-3.38243 -1.414218,-8.39243 -2.628399,-11.54561 l -0.606435,-1.57489 0.974718,-0.6118 c 1.323047,-0.83045 4.430997,-3.95873 5.353433,-5.38846 1.255844,-1.94649 1.765615,-3.78183 1.73596,-6.25 -0.04195,-3.49152 -1.008835,-6.16468 -3.219663,-8.901446 -1.630874,-2.018847 -2.955459,-4.503265 -3.455762,-6.481693 -0.368408,-1.45686 -0.428801,-2.181792 -0.341907,-4.104144 0.124197,-2.747623 0.667742,-4.570943 2.65417,-8.9034 1.611199,-3.514074 2.315822,-5.475562 2.595189,-7.224331 0.530332,-3.319746 -0.950687,-6.333341 -3.862728,-7.859925 -0.96738,-0.507131 -1.364363,-0.587035 -2.920414,-0.587815 -2.155831,-0.0011 -3.420568,0.484895 -4.837752,1.858908 -1.284378,1.245254 -1.982685,2.701815 -2.102767,4.38605 -0.178652,2.505704 0.736079,4.345827 2.724988,5.48174 1.007083,0.575169 1.055135,0.638017 0.65255,0.853474 -0.239023,0.12792 -0.726871,0.232583 -1.084108,0.232583 -0.357237,0 -0.649522,0.05326 -0.649522,0.118356 0,0.06509 0.303946,0.496574 0.675435,0.958843 1.266747,1.576297 0.999433,3.952413 -0.559567,4.973909 -0.78422,0.513841 -2.516803,0.493157 -3.228965,-0.03855 -0.815862,-0.609129 -1.310373,-1.34793 -1.471887,-2.199 -0.137784,-0.726031 -0.131953,-0.733779 0.279067,-0.370762 0.521584,0.460667 1.413316,0.47886 1.854344,0.03783 0.508221,-0.50822 0.403868,-1.431752 -0.406146,-3.594419 -1.272935,-3.398627 -1.236559,-6.465831 0.110463,-9.314176 3.258654,-6.890588 12.533458,-6.921317 15.783316,-0.05229 0.908723,1.920711 1.212155,3.891495 0.935741,6.077618 -0.263307,2.082464 -0.592732,3.182564 -2.087784,6.972047 -1.528765,3.874934 -1.960835,5.560885 -1.956341,7.633703 0.0059,2.700884 0.968394,4.587788 2.740079,5.371488 1.339876,0.59269 2.202283,0.295724 3.985512,-1.372401 2.382293,-2.228517 4.529507,-5.723773 5.258015,-8.559049 0.868363,-3.379582 0.0069,-8.131913 -2.083644,-11.495201 -0.68333,-1.099324 -0.699413,-1.173025 -0.408121,-1.870186 0.183977,-0.440318 0.278602,-1.240117 0.240592,-2.033541 l -0.06265,-1.307779 -0.447915,0.95339 c -0.246356,0.524364 -0.699216,1.184521 -1.006356,1.467014 l -0.558441,0.513627 0,-0.645887 c 0,-0.950153 -0.563811,-2.389548 -1.291296,-3.296644 -1.010481,-1.259962 -1.304473,-2.176653 -1.213636,-3.784228 0.06357,-1.125082 0.199994,-1.588324 0.656836,-2.230397 L 72.009949,58.59852 70.897817,58.102938 69.785685,57.607356 70.589176,57.1901 c 0.856161,-0.444607 1.630854,-1.493623 1.632157,-2.210114 0.0025,-1.380624 2.00657,-3.840113 3.541902,-4.346819 0.558208,-0.184225 0.689587,-0.319843 0.570481,-0.588884 -0.253517,-0.572653 -0.353161,-1.896026 -0.203021,-2.696338 l 0.140409,-0.748449 0.753284,0.661393 c 1.120487,0.983801 1.616273,1.10724 4.563502,1.136208 2.661627,0.02616 2.690731,0.02127 2.576731,-0.43286 l -0.115303,-0.459321 0.859824,0.425408 c 0.472905,0.233974 1.529583,0.509505 2.348176,0.612291 1.85739,0.233222 2.492706,0.558536 3.583936,1.835161 l 0.864937,1.011883 4.116905,0 c 2.264296,0 4.168281,0.05114 4.231074,0.113646 0.0628,0.06251 -0.163837,0.664807 -0.503629,1.338448 -0.339791,0.67364 -0.728369,1.786802 -0.863507,2.473693 l -0.245703,1.248891 -0.599083,-0.309796 c -1.963434,-1.015333 -4.434737,0.571589 -4.43289,2.846534 0.0013,1.692774 1.360223,3.19699 2.889676,3.198809 1.128038,0.0013 1.037093,0.549044 -0.487792,2.937627 -0.02692,0.04216 -0.45936,-0.259154 -0.960979,-0.669599 -0.501621,-0.410446 -1.640634,-1.13889 -2.531144,-1.618766 l -1.619106,-0.872501 -0.265877,-1.40909 -0.265877,-1.409091 -0.49849,0.57953 c -0.274171,0.318742 -0.498491,0.759266 -0.498491,0.978942 0,0.594944 -0.312557,0.687293 -1.539066,0.454734 -1.706661,-0.3236 -3.012436,-0.485773 -2.884966,-0.358302 0.06333,0.06333 0.870133,0.305356 1.792894,0.537835 2.796006,0.704423 4.587689,1.740824 6.77335,3.91805 1.246241,1.241434 2.154909,2.365681 2.595339,3.21108 0.372737,0.715464 0.677703,1.365493 0.677703,1.44451 0,0.07902 -0.275066,-0.05219 -0.611256,-0.291582 -0.650288,-0.463047 -2.456276,-1.288517 -2.819053,-1.288517 -0.119469,0 0.272241,0.440063 0.870466,0.977917 1.274877,1.146225 1.878917,2.115462 2.906411,4.663604 0.413968,1.026623 0.972197,2.299803 1.240508,2.829292 0.645969,1.274759 3.700192,4.181345 5.881082,5.596799 2.16345,1.404133 2.99787,1.82229 7.25642,3.636413 3.12596,1.331646 3.48878,1.544551 4.66102,2.735059 1.16282,1.180949 2.51605,3.436111 2.9593,4.931678 0.13183,0.444801 0.0773,0.476695 -0.81483,0.476695 l -0.95611,0 -0.76214,-1.430085 c -0.41918,-0.786546 -1.05487,-1.763771 -1.41266,-2.17161 -0.72928,-0.831313 -0.7309,-0.840349 0.18995,1.059322 0.36715,0.757416 0.73073,1.639301 0.80795,1.959746 0.13267,0.55054 0.1,0.582627 -0.59398,0.582627 -0.66596,0 -0.80472,-0.113972 -1.48951,-1.223413 -0.41532,-0.672877 -0.95908,-1.407985 -1.20836,-1.633576 -0.42456,-0.384221 -0.41942,-0.343687 0.0812,0.640786 0.29392,0.578021 0.59612,1.313131 0.67155,1.633576 0.12903,0.548112 0.095,0.58217 -0.57438,0.574892 -0.60804,-0.0066 -0.79856,-0.145089 -1.30994,-0.952146 -1.18961,-1.877403 -3.68418,-3.383155 -5.98758,-3.614161 -0.79347,-0.07958 -1.82116,-0.0052 -2.80225,0.202843 l -1.54927,0.328504 -1.800586,-1.248188 c -1.947068,-1.349727 -4.130832,-2.347403 -6.069553,-2.772937 -1.046722,-0.229745 -1.239934,-0.347349 -1.34108,-0.816281 -0.483074,-2.239613 -1.131394,-3.5566 -2.523093,-5.125375 -0.739513,-0.833609 -2.315306,-2.135284 -3.042299,-2.513079 -0.605182,-0.314491 -0.58239,-0.270777 0.835616,1.60267 1.746327,2.307216 2.886683,5.310966 2.701365,7.115514 l -0.06862,0.668147 1.84378,0.448733 c 1.014078,0.246805 1.900271,0.505226 1.969316,0.574271 0.204404,0.204405 -2.239227,3.266356 -4.875547,6.10922 -2.875146,3.100405 -4.616739,5.591564 -5.298892,7.579489 -0.296869,0.86513 -0.575517,2.39785 -0.709417,3.90219 -0.481458,5.40905 -2.874259,9.99467 -7.313634,14.01602 -5.32746,4.82581 -6.329145,6.2801 -6.43938,9.34897 -0.03358,0.93497 0.01835,1.81692 0.115419,1.95989 0.136724,0.20139 0.809718,0.1388 2.98741,-0.27782 1.546011,-0.29577 2.962314,-0.50809 3.147337,-0.47181 0.20228,0.0397 0.703839,0.9448 1.257975,2.27022 0.50686,1.21234 0.921565,2.23724 0.921565,2.27754 0,0.0403 -2.847059,0.0733 -6.326796,0.0733 l -6.326797,0 -0.149992,-1.85382 z m 26.156802,-80.96378 -0.233956,-0.868843 -1.79268,0 c -0.985975,0 -1.792682,0.0409 -1.792682,0.0909 0,0.04999 0.500529,0.238807 1.112288,0.419585 0.611758,0.180777 1.493076,0.56152 1.958485,0.846097 0.465407,0.284576 0.876864,0.486743 0.914347,0.449259 0.03748,-0.03748 -0.03713,-0.459132 -0.165802,-0.936996 z"
         style="fill:#ffffff;fill-opacity:1" /><path
         transform="translate(150,5)"
         inkscape:connector-curvature="0"
         id="path4254"
         d="M 100.05006,77.177407 C 99.127386,76.33245 98.939352,76.03029 98.834711,75.224405 98.766624,74.70004 98.646205,74.038795 98.567114,73.754971 l -0.143802,-0.516044 0.670593,0.477505 c 0.368826,0.262627 0.670593,0.446387 0.670593,0.408354 0,-0.03803 -0.429025,-1.163967 -0.95339,-2.502076 -0.524364,-1.33811 -0.95339,-2.505222 -0.95339,-2.593582 0,-0.08836 0.193397,-0.160656 0.429771,-0.160656 1.036017,0 3.629151,-1.58495 8.700731,-5.317983 4.12274,-3.034618 5.56533,-3.947023 6.84957,-4.332192 1.17227,-0.351588 5.1475,-0.451063 5.46189,-0.136678 0.10754,0.107543 0.0368,0.447471 -0.16696,0.8024 -0.33519,0.583849 -0.43188,0.617301 -1.863,0.644549 -0.8302,0.01581 -1.93848,0.173225 -2.46285,0.349816 l -0.95339,0.321076 1.80085,0.02384 c 0.99046,0.01311 2.01245,0.08057 2.27108,0.149899 0.4398,0.117902 0.45078,0.163666 0.16969,0.707236 -0.27674,0.535166 -0.42624,0.590683 -1.88831,0.701259 -2.28673,0.172945 -2.66607,0.481746 -0.78547,0.639409 1.83292,0.153665 1.9795,0.229485 1.68658,0.872373 -0.18967,0.416293 -0.42895,0.513079 -1.51099,0.611195 -3.73472,0.338653 -8.4048,4.314954 -12.80457,10.902361 -0.87557,1.310911 -1.60517,2.38044 -1.62133,2.376731 -0.0162,-0.0037 -0.52059,-0.456569 -1.12095,-1.006356 z"
         style="fill:#ffffff;fill-opacity:1" /><path
         transform="translate(150,5)"
         inkscape:connector-curvature="0"
         id="path4256"
         d="m 100.50602,60.596429 c -0.4661,-0.09032 -1.502343,-0.411192 -2.302763,-0.71304 -0.80042,-0.301848 -1.75381,-0.551987 -2.118644,-0.555864 l -0.663335,-0.007 0.500166,-0.41668 c 0.676222,-0.56335 1.688623,-0.525904 3.737122,0.138226 0.932204,0.302223 2.189954,0.56004 2.794994,0.572925 0.89294,0.01902 1.05579,0.07679 0.86488,0.306823 -0.54098,0.651843 -1.60858,0.907943 -2.81242,0.674658 z"
         style="fill:#ffffff;fill-opacity:1" /><path
         transform="translate(150,5)"
         inkscape:connector-curvature="0"
         id="path4258"
         d="m 88.01161,133.96381 c -0.375459,-2.54514 -1.916274,-7.74301 -3.595492,-12.12924 -0.09405,-0.24567 0.07601,-0.33133 0.74935,-0.37746 1.682969,-0.1153 3.381834,-1.40648 3.688665,-2.80347 0.103291,-0.47028 0.0062,-0.92106 -0.352814,-1.63886 -0.436272,-0.87215 -0.721989,-1.11207 -2.397583,-2.01328 -1.046258,-0.56272 -2.106958,-1.2154 -2.35711,-1.45041 l -0.454823,-0.42728 0.485232,-1.52801 c 0.55045,-1.73337 0.94509,-4.25783 0.94509,-6.0456 0,-2.28472 0.984853,-4.89824 2.623702,-6.962548 l 0.710717,-0.895228 1.245926,0.867683 c 2.193593,1.527653 3.511909,2.775033 5.259714,4.976703 2.646851,3.33418 4.469708,7.2216 5.005466,10.67464 0.55971,3.60739 -1.348479,7.31551 -4.677645,9.08994 -1.706138,0.90936 -2.425588,1.55132 -2.947984,2.63044 -0.768261,1.58702 -0.55703,3.51203 0.566874,5.16606 0.136191,0.20043 0.816874,0.14048 3.007011,-0.26483 1.557034,-0.28815 2.993709,-0.52391 3.19261,-0.52391 0.250173,0 0.575418,0.50609 1.055213,1.64195 0.381461,0.90307 0.824991,1.9518 0.985611,2.33051 l 0.29203,0.68856 -6.440651,0 -6.440651,0 -0.148458,-1.00636 z"
         style="fill:#ffffff;fill-opacity:1" /></g></g></svg>