<?xml version="1.0" encoding="UTF-8" standalone="no"?><!DOCTYPE svg PUBLIC "-//W3C//DTD SVG 1.1//EN" "http://www.w3.org/Graphics/SVG/1.1/DTD/svg11.dtd"><svg width="100%" height="100%" viewBox="0 0 72 30" version="1.1" xmlns="http://www.w3.org/2000/svg" xmlns:xlink="http://www.w3.org/1999/xlink" xml:space="preserve" style="fill-rule:evenodd;clip-rule:evenodd;stroke-linejoin:round;stroke-miterlimit:1.41421;"><rect id="Spiritualität" x="0.7" y="0.989" width="70.89" height="28.021" style="fill:none;"/><path d="M64.332,9.424c-3.769,3.441 -8.194,6.326 -12.673,8.735c-8.181,4.4 -17.601,7.289 -26.948,5.854c-6.357,-0.975 -12.035,-4.052 -16.768,-8.34c-0.231,-0.209 -0.214,-0.606 0,-0.818c9.5,-9.387 24.869,-11.483 37.032,-6.918c7.336,2.753 13.722,7.459 19.357,12.83c0.54,0.515 -0.279,1.332 -0.818,0.818c-8.73,-8.321 -19.751,-15.164 -32.202,-14.912c-6.918,0.141 -13.687,2.502 -19.353,6.44c-1.115,0.774 -2.23,1.603 -3.199,2.56l0,-0.818c8.218,7.445 18.786,9.885 29.506,7.32c7.726,-1.848 14.931,-5.709 21.299,-10.398c1.356,-0.999 2.704,-2.034 3.949,-3.171c0.549,-0.501 1.369,0.315 0.818,0.818" style="fill:#578a3e;fill-rule:nonzero;"/></svg>